<svg width="1024" height="1024" viewBox="0 0 1024 1024" fill="none" xmlns="http://www.w3.org/2000/svg">
<path d="M84 790C72.9543 790 64 781.046 64 770L64 255C64 243.954 72.9543 235 84 235H400.425C405.306 235 410.018 236.785 413.674 240.018L462.826 283.482C466.482 286.715 471.194 288.5 476.075 288.5L848 288.5C859.046 288.5 868 297.454 868 308.5V770C868 781.046 859.046 790 848 790H84Z" fill="#5D52BC"/>
<path d="M80 330L80 770C80 781.046 88.9543 790 100 790H831C842.046 790 851 781.046 851 770V330C851 318.954 842.046 310 831 310L100 310C88.9543 310 80 318.954 80 330Z" fill="url(#paint0_linear_2027_654)"/>
<path d="M84.7488 790C72.013 790 62.5212 778.255 65.1942 765.802L151.916 361.802C153.894 352.584 162.042 346 171.47 346L938.251 346C950.987 346 960.479 357.745 957.806 370.198L871.084 774.198C869.106 783.416 860.958 790 851.53 790H84.7488Z" fill="url(#paint1_linear_2027_654)"/>
<path d="M281 617C461.184 649.762 562.221 648.931 742.348 618.518" stroke="#494554" stroke-width="30" stroke-linecap="round"/>
<circle cx="467" cy="492" r="20" fill="white"/>
<circle cx="570" cy="492" r="20" fill="white"/>
<path d="M467 507C475.284 507 482 500.284 482 492C473.716 492 467 485.284 467 477C458.716 477 452 483.716 452 492C452 500.284 458.716 507 467 507Z" fill="#494554"/>
<path d="M570 507C578.284 507 585 500.284 585 492C576.716 492 570 485.284 570 477C561.716 477 555 483.716 555 492C555 500.284 561.716 507 570 507Z" fill="#494554"/>
<defs>
<linearGradient id="paint0_linear_2027_654" x1="465.5" y1="310" x2="465.5" y2="790" gradientUnits="userSpaceOnUse">
<stop stop-color="#FFFEA9"/>
<stop offset="1" stop-color="#999965"/>
</linearGradient>
<linearGradient id="paint1_linear_2027_654" x1="511.5" y1="346" x2="511.5" y2="790" gradientUnits="userSpaceOnUse">
<stop stop-color="#6658DD"/>
<stop offset="1" stop-color="#9389EA"/>
</linearGradient>
</defs>
</svg>
