<svg width="749" height="175" viewBox="0 0 749 175" fill="none" xmlns="http://www.w3.org/2000/svg">
<mask id="path-1-outside-1_2071_46" maskUnits="userSpaceOnUse" x="155" y="44" width="591" height="131" fill="black">
<rect fill="white" x="155" y="44" width="591" height="131"/>
<path d="M214.974 127.12H183.534L178.494 142H157.014L187.494 57.76H211.254L241.734 142H220.014L214.974 127.12ZM209.694 111.28L199.254 80.44L188.934 111.28H209.694ZM271.53 86.2C273.93 82.52 276.93 79.64 280.53 77.56C284.13 75.4 288.13 74.32 292.53 74.32V96.04H286.89C281.77 96.04 277.93 97.16 275.37 99.4C272.81 101.56 271.53 105.4 271.53 110.92V142H251.01V75.04H271.53V86.2ZM329.578 142.96C323.738 142.96 318.538 141.96 313.978 139.96C309.418 137.96 305.818 135.24 303.178 131.8C300.538 128.28 299.058 124.36 298.738 120.04H319.018C319.258 122.36 320.338 124.24 322.258 125.68C324.178 127.12 326.538 127.84 329.338 127.84C331.898 127.84 333.858 127.36 335.218 126.4C336.658 125.36 337.378 124.04 337.378 122.44C337.378 120.52 336.378 119.12 334.378 118.24C332.378 117.28 329.138 116.24 324.658 115.12C319.858 114 315.858 112.84 312.658 111.64C309.458 110.36 306.698 108.4 304.378 105.76C302.058 103.04 300.898 99.4 300.898 94.84C300.898 91 301.938 87.52 304.018 84.4C306.178 81.2 309.298 78.68 313.378 76.84C317.538 75 322.458 74.08 328.138 74.08C336.538 74.08 343.138 76.16 347.938 80.32C352.818 84.48 355.618 90 356.338 96.88H337.378C337.058 94.56 336.018 92.72 334.258 91.36C332.578 90 330.338 89.32 327.538 89.32C325.138 89.32 323.298 89.8 322.018 90.76C320.738 91.64 320.098 92.88 320.098 94.48C320.098 96.4 321.098 97.84 323.098 98.8C325.178 99.76 328.378 100.72 332.698 101.68C337.658 102.96 341.698 104.24 344.818 105.52C347.938 106.72 350.658 108.72 352.978 111.52C355.378 114.24 356.618 117.92 356.698 122.56C356.698 126.48 355.578 130 353.338 133.12C351.178 136.16 348.018 138.56 343.858 140.32C339.778 142.08 335.018 142.96 329.578 142.96ZM379.573 68.08C375.973 68.08 373.013 67.04 370.693 64.96C368.453 62.8 367.333 60.16 367.333 57.04C367.333 53.84 368.453 51.2 370.693 49.12C373.013 46.96 375.973 45.88 379.573 45.88C383.093 45.88 385.973 46.96 388.213 49.12C390.533 51.2 391.693 53.84 391.693 57.04C391.693 60.16 390.533 62.8 388.213 64.96C385.973 67.04 383.093 68.08 379.573 68.08ZM389.773 75.04V142H369.253V75.04H389.773ZM425.163 84.52C427.163 81.4 429.923 78.88 433.443 76.96C436.963 75.04 441.083 74.08 445.803 74.08C451.323 74.08 456.323 75.48 460.803 78.28C465.283 81.08 468.803 85.08 471.363 90.28C474.003 95.48 475.323 101.52 475.323 108.4C475.323 115.28 474.003 121.36 471.363 126.64C468.803 131.84 465.283 135.88 460.803 138.76C456.323 141.56 451.323 142.96 445.803 142.96C441.163 142.96 437.043 142 433.443 140.08C429.923 138.16 427.163 135.68 425.163 132.64V173.92H404.643V75.04H425.163V84.52ZM454.443 108.4C454.443 103.28 453.003 99.28 450.123 96.4C447.323 93.44 443.843 91.96 439.683 91.96C435.603 91.96 432.123 93.44 429.243 96.4C426.443 99.36 425.043 103.4 425.043 108.52C425.043 113.64 426.443 117.68 429.243 120.64C432.123 123.6 435.603 125.08 439.683 125.08C443.763 125.08 447.243 123.6 450.123 120.64C453.003 117.6 454.443 113.52 454.443 108.4ZM527.008 142L506.608 113.92V142H486.088V53.2H506.608V102.28L526.888 75.04H552.208L524.368 108.64L552.448 142H527.008ZM556.188 108.4C556.188 101.52 557.468 95.48 560.028 90.28C562.668 85.08 566.228 81.08 570.708 78.28C575.188 75.48 580.188 74.08 585.708 74.08C590.428 74.08 594.548 75.04 598.068 76.96C601.668 78.88 604.428 81.4 606.348 84.52V75.04H626.868V142H606.348V132.52C604.348 135.64 601.548 138.16 597.948 140.08C594.428 142 590.308 142.96 585.588 142.96C580.148 142.96 575.188 141.56 570.708 138.76C566.228 135.88 562.668 131.84 560.028 126.64C557.468 121.36 556.188 115.28 556.188 108.4ZM606.348 108.52C606.348 103.4 604.908 99.36 602.028 96.4C599.228 93.44 595.788 91.96 591.708 91.96C587.628 91.96 584.148 93.44 581.268 96.4C578.468 99.28 577.068 103.28 577.068 108.4C577.068 113.52 578.468 117.6 581.268 120.64C584.148 123.6 587.628 125.08 591.708 125.08C595.788 125.08 599.228 123.6 602.028 120.64C604.908 117.68 606.348 113.64 606.348 108.52ZM682.513 74.32C690.353 74.32 696.593 76.88 701.233 82C705.953 87.04 708.313 94 708.313 102.88V142H687.913V105.64C687.913 101.16 686.753 97.68 684.433 95.2C682.113 92.72 678.993 91.48 675.073 91.48C671.153 91.48 668.033 92.72 665.713 95.2C663.393 97.68 662.233 101.16 662.233 105.64V142H641.713V75.04H662.233V83.92C664.313 80.96 667.113 78.64 670.633 76.96C674.153 75.2 678.113 74.32 682.513 74.32ZM732.173 142.96C728.573 142.96 725.613 141.92 723.293 139.84C721.053 137.68 719.933 135.04 719.933 131.92C719.933 128.72 721.053 126.04 723.293 123.88C725.613 121.72 728.573 120.64 732.173 120.64C735.693 120.64 738.573 121.72 740.813 123.88C743.133 126.04 744.293 128.72 744.293 131.92C744.293 135.04 743.133 137.68 740.813 139.84C738.573 141.92 735.693 142.96 732.173 142.96Z"/>
</mask>
<path d="M214.974 127.12L215.921 126.799L215.691 126.12H214.974V127.12ZM183.534 127.12V126.12H182.817L182.587 126.799L183.534 127.12ZM178.494 142V143H179.211L179.441 142.321L178.494 142ZM157.014 142L156.073 141.66L155.588 143H157.014V142ZM187.494 57.76V56.76H186.792L186.553 57.4198L187.494 57.76ZM211.254 57.76L212.194 57.4198L211.955 56.76H211.254V57.76ZM241.734 142V143H243.159L242.674 141.66L241.734 142ZM220.014 142L219.067 142.321L219.297 143H220.014V142ZM209.694 111.28V112.28H211.088L210.641 110.959L209.694 111.28ZM199.254 80.44L200.201 80.1194L199.248 77.3051L198.305 80.1227L199.254 80.44ZM188.934 111.28L187.985 110.963L187.545 112.28H188.934V111.28ZM214.974 127.12V126.12H183.534V127.12V128.12H214.974V127.12ZM183.534 127.12L182.587 126.799L177.547 141.679L178.494 142L179.441 142.321L184.481 127.441L183.534 127.12ZM178.494 142V141H157.014V142V143H178.494V142ZM157.014 142L157.954 142.34L188.434 58.1002L187.494 57.76L186.553 57.4198L156.073 141.66L157.014 142ZM187.494 57.76V58.76H211.254V57.76V56.76H187.494V57.76ZM211.254 57.76L210.313 58.1002L240.793 142.34L241.734 142L242.674 141.66L212.194 57.4198L211.254 57.76ZM241.734 142V141H220.014V142V143H241.734V142ZM220.014 142L220.961 141.679L215.921 126.799L214.974 127.12L214.027 127.441L219.067 142.321L220.014 142ZM209.694 111.28L210.641 110.959L200.201 80.1194L199.254 80.44L198.307 80.7606L208.747 111.601L209.694 111.28ZM199.254 80.44L198.305 80.1227L187.985 110.963L188.934 111.28L189.882 111.597L200.202 80.7573L199.254 80.44ZM188.934 111.28V112.28H209.694V111.28V110.28H188.934V111.28ZM271.53 86.2H270.53V89.5639L272.368 86.7463L271.53 86.2ZM280.53 77.56L281.031 78.4259L281.038 78.4217L281.045 78.4175L280.53 77.56ZM292.53 74.32H293.53V73.32H292.53V74.32ZM292.53 96.04V97.04H293.53V96.04H292.53ZM275.37 99.4L276.015 100.164L276.022 100.158L276.029 100.153L275.37 99.4ZM271.53 142V143H272.53V142H271.53ZM251.01 142H250.01V143H251.01V142ZM251.01 75.04V74.04H250.01V75.04H251.01ZM271.53 75.04H272.53V74.04H271.53V75.04ZM271.53 86.2L272.368 86.7463C274.687 83.1901 277.574 80.4228 281.031 78.4259L280.53 77.56L280.03 76.6941C276.286 78.8572 273.173 81.8499 270.693 85.6537L271.53 86.2ZM280.53 77.56L281.045 78.4175C284.482 76.3553 288.302 75.32 292.53 75.32V74.32V73.32C287.958 73.32 283.779 74.4447 280.016 76.7025L280.53 77.56ZM292.53 74.32H291.53V96.04H292.53H293.53V74.32H292.53ZM292.53 96.04V95.04H286.89V96.04V97.04H292.53V96.04ZM286.89 96.04V95.04C281.647 95.04 277.527 96.1842 274.712 98.6474L275.37 99.4L276.029 100.153C278.334 98.1358 281.894 97.04 286.89 97.04V96.04ZM275.37 99.4L274.725 98.6357C271.829 101.08 270.53 105.292 270.53 110.92H271.53H272.53C272.53 105.508 273.792 102.04 276.015 100.164L275.37 99.4ZM271.53 110.92H270.53V142H271.53H272.53V110.92H271.53ZM271.53 142V141H251.01V142V143H271.53V142ZM251.01 142H252.01V75.04H251.01H250.01V142H251.01ZM251.01 75.04V76.04H271.53V75.04V74.04H251.01V75.04ZM271.53 75.04H270.53V86.2H271.53H272.53V75.04H271.53ZM313.978 139.96L314.38 139.044L314.38 139.044L313.978 139.96ZM303.178 131.8L302.378 132.4L302.385 132.409L303.178 131.8ZM298.738 120.04V119.04H297.662L297.741 120.114L298.738 120.04ZM319.018 120.04L320.013 119.937L319.92 119.04H319.018V120.04ZM322.258 125.68L322.858 124.88L322.858 124.88L322.258 125.68ZM335.218 126.4L335.795 127.217L335.804 127.211L335.218 126.4ZM334.378 118.24L333.946 119.142L333.961 119.149L333.976 119.155L334.378 118.24ZM324.658 115.12L324.901 114.15L324.893 114.148L324.886 114.146L324.658 115.12ZM312.658 111.64L312.287 112.568L312.297 112.573L312.307 112.576L312.658 111.64ZM304.378 105.76L303.618 106.409L303.622 106.415L303.627 106.42L304.378 105.76ZM304.018 84.4L303.19 83.8405L303.186 83.8453L304.018 84.4ZM313.378 76.84L312.974 75.9254L312.967 75.9284L313.378 76.84ZM347.938 80.32L347.283 81.0757L347.29 81.081L347.938 80.32ZM356.338 96.88V97.88H357.449L357.333 96.7759L356.338 96.88ZM337.378 96.88L336.388 97.0166L336.507 97.88H337.378V96.88ZM334.258 91.36L333.629 92.1372L333.638 92.1444L333.647 92.1513L334.258 91.36ZM322.018 90.76L322.585 91.584L322.602 91.5724L322.618 91.56L322.018 90.76ZM323.098 98.8L322.666 99.7015L322.673 99.7048L322.679 99.708L323.098 98.8ZM332.698 101.68L332.948 100.712L332.932 100.707L332.915 100.704L332.698 101.68ZM344.818 105.52L344.439 106.445L344.449 106.449L344.459 106.453L344.818 105.52ZM352.978 111.52L352.208 112.158L352.218 112.17L352.229 112.182L352.978 111.52ZM356.698 122.56H357.698V122.551L357.698 122.543L356.698 122.56ZM353.338 133.12L352.526 132.537L352.523 132.541L353.338 133.12ZM343.858 140.32L343.469 139.399L343.462 139.402L343.858 140.32ZM329.578 142.96V141.96C323.853 141.96 318.793 140.98 314.38 139.044L313.978 139.96L313.577 140.876C318.283 142.94 323.624 143.96 329.578 143.96V142.96ZM313.978 139.96L314.38 139.044C309.951 137.102 306.495 134.479 303.972 131.191L303.178 131.8L302.385 132.409C305.142 136.001 308.886 138.818 313.577 140.876L313.978 139.96ZM303.178 131.8L303.978 131.2C301.451 127.83 300.041 124.092 299.736 119.966L298.738 120.04L297.741 120.114C298.076 124.628 299.626 128.73 302.378 132.4L303.178 131.8ZM298.738 120.04V121.04H319.018V120.04V119.04H298.738V120.04ZM319.018 120.04L318.024 120.143C318.293 122.749 319.523 124.878 321.658 126.48L322.258 125.68L322.858 124.88C321.154 123.602 320.224 121.971 320.013 119.937L319.018 120.04ZM322.258 125.68L321.658 126.48C323.779 128.071 326.359 128.84 329.338 128.84V127.84V126.84C326.717 126.84 324.578 126.169 322.858 124.88L322.258 125.68ZM329.338 127.84V128.84C332.001 128.84 334.198 128.344 335.795 127.217L335.218 126.4L334.642 125.583C333.519 126.376 331.796 126.84 329.338 126.84V127.84ZM335.218 126.4L335.804 127.211C337.471 126.007 338.378 124.4 338.378 122.44H337.378H336.378C336.378 123.68 335.846 124.713 334.633 125.589L335.218 126.4ZM337.378 122.44H338.378C338.378 121.297 338.077 120.258 337.442 119.369C336.813 118.488 335.902 117.818 334.781 117.325L334.378 118.24L333.976 119.155C334.855 119.542 335.444 120.012 335.815 120.531C336.18 121.042 336.378 121.663 336.378 122.44H337.378ZM334.378 118.24L334.811 117.338C332.715 116.332 329.392 115.273 324.901 114.15L324.658 115.12L324.416 116.09C328.885 117.207 332.042 118.228 333.946 119.142L334.378 118.24ZM324.658 115.12L324.886 114.146C320.111 113.032 316.156 111.883 313.01 110.704L312.658 111.64L312.307 112.576C315.561 113.797 319.606 114.968 324.431 116.094L324.658 115.12ZM312.658 111.64L313.03 110.712C309.979 109.491 307.348 107.624 305.13 105.1L304.378 105.76L303.627 106.42C306.049 109.176 308.938 111.229 312.287 112.568L312.658 111.64ZM304.378 105.76L305.139 105.111C303.012 102.617 301.898 99.2293 301.898 94.84H300.898H299.898C299.898 99.5707 301.105 103.463 303.618 106.409L304.378 105.76ZM300.898 94.84H301.898C301.898 91.1924 302.883 87.9063 304.85 84.9547L304.018 84.4L303.186 83.8453C300.994 87.1337 299.898 90.8076 299.898 94.84H300.898ZM304.018 84.4L304.847 84.9595C306.888 81.9365 309.851 79.5276 313.79 77.7516L313.378 76.84L312.967 75.9284C308.746 77.8324 305.469 80.4635 303.19 83.8405L304.018 84.4ZM313.378 76.84L313.783 77.7545C317.788 75.983 322.564 75.08 328.138 75.08V74.08V73.08C322.353 73.08 317.289 74.0169 312.974 75.9255L313.378 76.84ZM328.138 74.08V75.08C336.377 75.08 342.717 77.1181 347.284 81.0757L347.938 80.32L348.593 79.5643C343.56 75.2019 336.7 73.08 328.138 73.08V74.08ZM347.938 80.32L347.29 81.081C351.958 85.0607 354.648 90.3373 355.344 96.9841L356.338 96.88L357.333 96.7759C356.589 89.6627 353.679 83.8993 348.587 79.559L347.938 80.32ZM356.338 96.88V95.88H337.378V96.88V97.88H356.338V96.88ZM337.378 96.88L338.369 96.7434C338.015 94.1791 336.849 92.098 334.87 90.5687L334.258 91.36L333.647 92.1513C335.188 93.342 336.102 94.9409 336.388 97.0166L337.378 96.88ZM334.258 91.36L334.888 90.5828C332.983 89.0407 330.499 88.32 327.538 88.32V89.32V90.32C330.178 90.32 332.174 90.9593 333.629 92.1372L334.258 91.36ZM327.538 89.32V88.32C325.025 88.32 322.939 88.8197 321.418 89.96L322.018 90.76L322.618 91.56C323.658 90.7803 325.252 90.32 327.538 90.32V89.32ZM322.018 90.76L321.452 89.936C319.891 91.0091 319.098 92.5625 319.098 94.48H320.098H321.098C321.098 93.1975 321.586 92.2709 322.585 91.584L322.018 90.76ZM320.098 94.48H319.098C319.098 95.6236 319.4 96.667 320.027 97.5704C320.649 98.4655 321.55 99.1662 322.666 99.7015L323.098 98.8L323.531 97.8985C322.646 97.4738 322.048 96.9745 321.67 96.4296C321.297 95.893 321.098 95.2564 321.098 94.48H320.098ZM323.098 98.8L322.679 99.708C324.859 100.714 328.144 101.692 332.482 102.656L332.698 101.68L332.915 100.704C328.613 99.7478 325.498 98.806 323.517 97.892L323.098 98.8ZM332.698 101.68L332.449 102.648C337.385 103.922 341.377 105.189 344.439 106.445L344.818 105.52L345.198 104.595C342.02 103.291 337.932 101.998 332.948 100.712L332.698 101.68ZM344.818 105.52L344.459 106.453C347.406 107.586 349.988 109.478 352.208 112.158L352.978 111.52L353.748 110.882C351.329 107.962 348.471 105.854 345.177 104.587L344.818 105.52ZM352.978 111.52L352.229 112.182C354.432 114.678 355.622 118.107 355.699 122.577L356.698 122.56L357.698 122.543C357.615 117.733 356.325 113.802 353.728 110.858L352.978 111.52ZM356.698 122.56H355.698C355.698 126.275 354.641 129.59 352.526 132.537L353.338 133.12L354.151 133.703C356.515 130.41 357.698 126.685 357.698 122.56H356.698ZM353.338 133.12L352.523 132.541C350.491 135.4 347.494 137.696 343.469 139.399L343.858 140.32L344.248 141.241C348.543 139.424 351.865 136.92 354.154 133.699L353.338 133.12ZM343.858 140.32L343.462 139.402C339.532 141.097 334.912 141.96 329.578 141.96V142.96V143.96C335.125 143.96 340.025 143.063 344.255 141.238L343.858 140.32ZM370.693 64.96L369.998 65.6798L370.011 65.6924L370.025 65.7046L370.693 64.96ZM370.693 49.12L371.373 49.8528L371.374 49.8519L370.693 49.12ZM388.213 49.12L387.518 49.8398L387.531 49.8524L387.545 49.8646L388.213 49.12ZM388.213 64.96L388.893 65.6928L388.894 65.6919L388.213 64.96ZM389.773 75.04H390.773V74.04H389.773V75.04ZM389.773 142V143H390.773V142H389.773ZM369.253 142H368.253V143H369.253V142ZM369.253 75.04V74.04H368.253V75.04H369.253ZM379.573 68.08V67.08C376.178 67.08 373.468 66.1056 371.36 64.2154L370.693 64.96L370.025 65.7046C372.557 67.9744 375.767 69.08 379.573 69.08V68.08ZM370.693 64.96L371.387 64.2402C369.343 62.2692 368.333 59.8893 368.333 57.04H367.333H366.333C366.333 60.4307 367.562 63.3308 369.998 65.6798L370.693 64.96ZM367.333 57.04H368.333C368.333 54.1034 369.347 51.7338 371.373 49.8528L370.693 49.12L370.012 48.3872C367.558 50.6662 366.333 53.5766 366.333 57.04H367.333ZM370.693 49.12L371.374 49.8519C373.483 47.8878 376.188 46.88 379.573 46.88V45.88V44.88C375.757 44.88 372.542 46.0322 370.011 48.3881L370.693 49.12ZM379.573 45.88V46.88C382.87 46.88 385.49 47.8836 387.518 49.8398L388.213 49.12L388.907 48.4001C386.455 46.0364 383.315 44.88 379.573 44.88V45.88ZM388.213 49.12L387.545 49.8646C389.647 51.7491 390.693 54.1154 390.693 57.04H391.693H392.693C392.693 53.5646 391.418 50.6509 388.88 48.3754L388.213 49.12ZM391.693 57.04H390.693C390.693 59.8774 389.652 62.2538 387.531 64.2281L388.213 64.96L388.894 65.6919C391.413 63.3462 392.693 60.4426 392.693 57.04H391.693ZM388.213 64.96L387.532 64.2272C385.505 66.1094 382.881 67.08 379.573 67.08V68.08V69.08C383.304 69.08 386.44 67.9705 388.893 65.6928L388.213 64.96ZM389.773 75.04H388.773V142H389.773H390.773V75.04H389.773ZM389.773 142V141H369.253V142V143H389.773V142ZM369.253 142H370.253V75.04H369.253H368.253V142H369.253ZM369.253 75.04V76.04H389.773V75.04V74.04H369.253V75.04ZM425.163 84.52H424.163V87.933L426.005 85.0597L425.163 84.52ZM433.443 76.96L432.964 76.0821L432.964 76.0821L433.443 76.96ZM460.803 78.28L460.273 79.128L460.273 79.128L460.803 78.28ZM471.363 90.28L470.466 90.7217L470.471 90.7327L471.363 90.28ZM471.363 126.64L470.469 126.193L470.466 126.198L471.363 126.64ZM460.803 138.76L461.333 139.608L461.344 139.601L460.803 138.76ZM433.443 140.08L432.964 140.958L432.973 140.962L433.443 140.08ZM425.163 132.64L425.999 132.09L424.163 129.301V132.64H425.163ZM425.163 173.92V174.92H426.163V173.92H425.163ZM404.643 173.92H403.643V174.92H404.643V173.92ZM404.643 75.04V74.04H403.643V75.04H404.643ZM425.163 75.04H426.163V74.04H425.163V75.04ZM450.123 96.4L449.397 97.0872L449.406 97.0973L449.416 97.1071L450.123 96.4ZM429.243 96.4L428.526 95.7026L428.517 95.7128L429.243 96.4ZM429.243 120.64L428.517 121.327L428.526 121.337L429.243 120.64ZM450.123 120.64L450.84 121.337L450.849 121.328L450.123 120.64ZM425.163 84.52L426.005 85.0597C427.907 82.0926 430.537 79.6842 433.922 77.8379L433.443 76.96L432.964 76.0821C429.309 78.0758 426.419 80.7074 424.321 83.9803L425.163 84.52ZM433.443 76.96L433.922 77.8379C437.271 76.0111 441.221 75.08 445.803 75.08V74.08V73.08C440.946 73.08 436.655 74.0689 432.964 76.0821L433.443 76.96ZM445.803 74.08V75.08C451.145 75.08 455.959 76.4319 460.273 79.128L460.803 78.28L461.333 77.432C456.687 74.5281 451.502 73.08 445.803 73.08V74.08ZM460.803 78.28L460.273 79.128C464.58 81.8199 467.98 85.6719 470.466 90.7217L471.363 90.28L472.26 89.8383C469.626 84.4881 465.986 80.3401 461.333 77.432L460.803 78.28ZM471.363 90.28L470.471 90.7327C473.029 95.7693 474.323 101.649 474.323 108.4H475.323H476.323C476.323 101.391 474.978 95.1907 472.255 89.8273L471.363 90.28ZM475.323 108.4H474.323C474.323 115.15 473.029 121.073 470.469 126.193L471.363 126.64L472.258 127.087C474.978 121.647 476.323 115.41 476.323 108.4H475.323ZM471.363 126.64L470.466 126.198C467.979 131.25 464.576 135.146 460.262 137.919L460.803 138.76L461.344 139.601C465.99 136.614 469.627 132.43 472.26 127.082L471.363 126.64ZM460.803 138.76L460.273 137.912C455.959 140.608 451.145 141.96 445.803 141.96V142.96V143.96C451.502 143.96 456.687 142.512 461.333 139.608L460.803 138.76ZM445.803 142.96V141.96C441.304 141.96 437.35 141.03 433.914 139.198L433.443 140.08L432.973 140.962C436.736 142.97 441.022 143.96 445.803 143.96V142.96ZM433.443 140.08L433.922 139.202C430.531 137.352 427.899 134.98 425.999 132.09L425.163 132.64L424.328 133.19C426.427 136.38 429.315 138.968 432.964 140.958L433.443 140.08ZM425.163 132.64H424.163V173.92H425.163H426.163V132.64H425.163ZM425.163 173.92V172.92H404.643V173.92V174.92H425.163V173.92ZM404.643 173.92H405.643V75.04H404.643H403.643V173.92H404.643ZM404.643 75.04V76.04H425.163V75.04V74.04H404.643V75.04ZM425.163 75.04H424.163V84.52H425.163H426.163V75.04H425.163ZM454.443 108.4H455.443C455.443 103.087 453.943 98.8058 450.83 95.6929L450.123 96.4L449.416 97.1071C452.063 99.7542 453.443 103.473 453.443 108.4H454.443ZM450.123 96.4L450.85 95.7128C447.856 92.5484 444.111 90.96 439.683 90.96V91.96V92.96C443.575 92.96 446.79 94.3316 449.397 97.0872L450.123 96.4ZM439.683 91.96V90.96C435.329 90.96 431.592 92.5518 428.526 95.7026L429.243 96.4L429.96 97.0974C432.654 94.3282 435.877 92.96 439.683 92.96V91.96ZM429.243 96.4L428.517 95.7128C425.499 98.9029 424.043 103.213 424.043 108.52H425.043H426.043C426.043 103.587 427.387 99.817 429.97 97.0872L429.243 96.4ZM425.043 108.52H424.043C424.043 113.827 425.499 118.137 428.517 121.327L429.243 120.64L429.97 119.953C427.387 117.223 426.043 113.453 426.043 108.52H425.043ZM429.243 120.64L428.526 121.337C431.592 124.488 435.329 126.08 439.683 126.08V125.08V124.08C435.877 124.08 432.654 122.712 429.96 119.943L429.243 120.64ZM439.683 125.08V126.08C444.037 126.08 447.774 124.488 450.84 121.337L450.123 120.64L449.406 119.943C446.712 122.712 443.489 124.08 439.683 124.08V125.08ZM450.123 120.64L450.849 121.328C453.942 118.063 455.443 113.716 455.443 108.4H454.443H453.443C453.443 113.324 452.064 117.137 449.397 119.952L450.123 120.64ZM527.008 142L526.199 142.588L526.499 143H527.008V142ZM506.608 113.92L507.417 113.332L505.608 110.842V113.92H506.608ZM506.608 142V143H507.608V142H506.608ZM486.088 142H485.088V143H486.088V142ZM486.088 53.2V52.2H485.088V53.2H486.088ZM506.608 53.2H507.608V52.2H506.608V53.2ZM506.608 102.28H505.608V105.298L507.411 102.877L506.608 102.28ZM526.888 75.04V74.04H526.386L526.086 74.4428L526.888 75.04ZM552.208 75.04L552.978 75.678L554.336 74.04H552.208V75.04ZM524.368 108.64L523.598 108.002L523.066 108.645L523.603 109.284L524.368 108.64ZM552.448 142V143H554.597L553.213 141.356L552.448 142ZM527.008 142L527.817 141.412L507.417 113.332L506.608 113.92L505.799 114.508L526.199 142.588L527.008 142ZM506.608 113.92H505.608V142H506.608H507.608V113.92H506.608ZM506.608 142V141H486.088V142V143H506.608V142ZM486.088 142H487.088V53.2H486.088H485.088V142H486.088ZM486.088 53.2V54.2H506.608V53.2V52.2H486.088V53.2ZM506.608 53.2H505.608V102.28H506.608H507.608V53.2H506.608ZM506.608 102.28L507.411 102.877L527.691 75.6372L526.888 75.04L526.086 74.4428L505.806 101.683L506.608 102.28ZM526.888 75.04V76.04H552.208V75.04V74.04H526.888V75.04ZM552.208 75.04L551.438 74.402L523.598 108.002L524.368 108.64L525.138 109.278L552.978 75.678L552.208 75.04ZM524.368 108.64L523.603 109.284L551.683 142.644L552.448 142L553.213 141.356L525.133 107.996L524.368 108.64ZM552.448 142V141H527.008V142V143H552.448V142ZM560.028 90.28L559.136 89.8273L559.131 89.8383L560.028 90.28ZM570.708 78.28L571.238 79.128L571.238 79.128L570.708 78.28ZM598.068 76.96L597.589 77.8379L597.598 77.8423L598.068 76.96ZM606.348 84.52L605.496 85.0441L607.348 88.053V84.52H606.348ZM606.348 75.04V74.04H605.348V75.04H606.348ZM626.868 75.04H627.868V74.04H626.868V75.04ZM626.868 142V143H627.868V142H626.868ZM606.348 142H605.348V143H606.348V142ZM606.348 132.52H607.348V129.107L605.506 131.98L606.348 132.52ZM597.948 140.08L597.478 139.198L597.469 139.202L597.948 140.08ZM570.708 138.76L570.167 139.601L570.178 139.608L570.708 138.76ZM560.028 126.64L559.128 127.076L559.132 127.085L559.136 127.093L560.028 126.64ZM602.028 96.4L601.302 97.0873L601.311 97.0974L602.028 96.4ZM581.268 96.4L580.551 95.7026L580.551 95.7029L581.268 96.4ZM581.268 120.64L580.533 121.317L580.542 121.328L580.551 121.337L581.268 120.64ZM602.028 120.64L601.311 119.943L601.302 119.953L602.028 120.64ZM556.188 108.4H557.188C557.188 101.645 558.444 95.7609 560.925 90.7217L560.028 90.28L559.131 89.8383C556.492 95.1991 555.188 101.395 555.188 108.4H556.188ZM560.028 90.28L560.92 90.7327C563.486 85.6775 566.928 81.8218 571.238 79.128L570.708 78.28L570.178 77.432C565.528 80.3382 561.85 84.4824 559.136 89.8273L560.028 90.28ZM570.708 78.28L571.238 79.128C575.552 76.4319 580.367 75.08 585.708 75.08V74.08V73.08C580.01 73.08 574.824 74.5281 570.178 77.432L570.708 78.28ZM585.708 74.08V75.08C590.291 75.08 594.24 76.0111 597.589 77.8379L598.068 76.96L598.547 76.0821C594.856 74.0689 590.566 73.08 585.708 73.08V74.08ZM598.068 76.96L597.598 77.8423C601.059 79.6886 603.68 82.0919 605.496 85.0441L606.348 84.52L607.2 83.9959C605.177 80.7081 602.277 78.0714 598.539 76.0776L598.068 76.96ZM606.348 84.52H607.348V75.04H606.348H605.348V84.52H606.348ZM606.348 75.04V76.04H626.868V75.04V74.04H606.348V75.04ZM626.868 75.04H625.868V142H626.868H627.868V75.04H626.868ZM626.868 142V141H606.348V142V143H626.868V142ZM606.348 142H607.348V132.52H606.348H605.348V142H606.348ZM606.348 132.52L605.506 131.98C603.608 134.942 600.942 137.35 597.478 139.198L597.948 140.08L598.419 140.962C602.154 138.97 605.089 136.338 607.19 133.06L606.348 132.52ZM597.948 140.08L597.469 139.202C594.12 141.029 590.171 141.96 585.588 141.96V142.96V143.96C590.446 143.96 594.736 142.971 598.427 140.958L597.948 140.08ZM585.588 142.96V141.96C580.33 141.96 575.554 140.61 571.238 137.912L570.708 138.76L570.178 139.608C574.822 142.51 579.967 143.96 585.588 143.96V142.96ZM570.708 138.76L571.249 137.919C566.932 135.144 563.487 131.244 560.92 126.187L560.028 126.64L559.136 127.093C561.849 132.436 565.524 136.616 570.167 139.601L570.708 138.76ZM560.028 126.64L560.928 126.204C558.444 121.081 557.188 115.155 557.188 108.4H556.188H555.188C555.188 115.405 556.492 121.639 559.128 127.076L560.028 126.64ZM606.348 108.52H607.348C607.348 103.205 605.848 98.8917 602.745 95.7026L602.028 96.4L601.311 97.0974C603.968 99.8283 605.348 103.595 605.348 108.52H606.348ZM602.028 96.4L602.755 95.7128C599.765 92.5528 596.063 90.96 591.708 90.96V91.96V92.96C595.514 92.96 598.691 94.3272 601.302 97.0872L602.028 96.4ZM591.708 91.96V90.96C587.354 90.96 583.617 92.5518 580.551 95.7026L581.268 96.4L581.985 97.0974C584.679 94.3282 587.902 92.96 591.708 92.96V91.96ZM581.268 96.4L580.551 95.7029C577.524 98.8171 576.068 103.094 576.068 108.4H577.068H578.068C578.068 103.466 579.413 99.7429 581.985 97.0971L581.268 96.4ZM577.068 108.4H576.068C576.068 113.708 577.524 118.051 580.533 121.317L581.268 120.64L582.004 119.963C579.412 117.149 578.068 113.332 578.068 108.4H577.068ZM581.268 120.64L580.551 121.337C583.617 124.488 587.354 126.08 591.708 126.08V125.08V124.08C587.902 124.08 584.679 122.712 581.985 119.943L581.268 120.64ZM591.708 125.08V126.08C596.063 126.08 599.765 124.487 602.755 121.327L602.028 120.64L601.302 119.953C598.691 122.713 595.514 124.08 591.708 124.08V125.08ZM602.028 120.64L602.745 121.337C605.848 118.148 607.348 113.835 607.348 108.52H606.348H605.348C605.348 113.445 603.968 117.212 601.311 119.943L602.028 120.64ZM701.233 82L700.492 82.6715L700.498 82.6776L700.504 82.6836L701.233 82ZM708.313 142V143H709.313V142H708.313ZM687.913 142H686.913V143H687.913V142ZM684.433 95.2L683.703 95.8832L683.703 95.8832L684.433 95.2ZM665.713 95.2L666.444 95.8832L666.444 95.8832L665.713 95.2ZM662.233 142V143H663.233V142H662.233ZM641.713 142H640.713V143H641.713V142ZM641.713 75.04V74.04H640.713V75.04H641.713ZM662.233 75.04H663.233V74.04H662.233V75.04ZM662.233 83.92H661.233V87.0824L663.052 84.4949L662.233 83.92ZM670.633 76.96L671.064 77.8625L671.072 77.8585L671.081 77.8544L670.633 76.96ZM682.513 74.32V75.32C690.113 75.32 696.069 77.7899 700.492 82.6715L701.233 82L701.974 81.3285C697.118 75.9701 690.594 73.32 682.513 73.32V74.32ZM701.233 82L700.504 82.6836C705.005 87.4898 707.313 94.1787 707.313 102.88H708.313H709.313C709.313 93.8213 706.902 86.5902 701.963 81.3164L701.233 82ZM708.313 102.88H707.313V142H708.313H709.313V102.88H708.313ZM708.313 142V141H687.913V142V143H708.313V142ZM687.913 142H688.913V105.64H687.913H686.913V142H687.913ZM687.913 105.64H688.913C688.913 100.989 687.707 97.235 685.164 94.5168L684.433 95.2L683.703 95.8832C685.8 98.125 686.913 101.331 686.913 105.64H687.913ZM684.433 95.2L685.164 94.5168C682.625 91.8029 679.223 90.48 675.073 90.48V91.48V92.48C678.763 92.48 681.602 93.6371 683.703 95.8832L684.433 95.2ZM675.073 91.48V90.48C670.923 90.48 667.522 91.8029 664.983 94.5168L665.713 95.2L666.444 95.8832C668.545 93.6371 671.383 92.48 675.073 92.48V91.48ZM665.713 95.2L664.983 94.5168C662.44 97.235 661.233 100.989 661.233 105.64H662.233H663.233C663.233 101.331 664.347 98.125 666.444 95.8832L665.713 95.2ZM662.233 105.64H661.233V142H662.233H663.233V105.64H662.233ZM662.233 142V141H641.713V142V143H662.233V142ZM641.713 142H642.713V75.04H641.713H640.713V142H641.713ZM641.713 75.04V76.04H662.233V75.04V74.04H641.713V75.04ZM662.233 75.04H661.233V83.92H662.233H663.233V75.04H662.233ZM662.233 83.92L663.052 84.4949C665.025 81.6865 667.687 79.4744 671.064 77.8625L670.633 76.96L670.203 76.0575C666.54 77.8056 663.602 80.2335 661.415 83.3451L662.233 83.92ZM670.633 76.96L671.081 77.8544C674.446 76.1717 678.25 75.32 682.513 75.32V74.32V73.32C677.977 73.32 673.861 74.2283 670.186 76.0656L670.633 76.96ZM723.293 139.84L722.599 140.56L722.612 140.572L722.625 140.585L723.293 139.84ZM723.293 123.88L722.611 123.148L722.605 123.154L722.599 123.16L723.293 123.88ZM740.813 123.88L740.119 124.6L740.125 124.606L740.131 124.612L740.813 123.88ZM740.813 139.84L741.493 140.573L741.494 140.572L740.813 139.84ZM732.173 142.96V141.96C728.778 141.96 726.069 140.986 723.96 139.095L723.293 139.84L722.625 140.585C725.157 142.854 728.367 143.96 732.173 143.96V142.96ZM723.293 139.84L723.987 139.12C721.943 137.149 720.933 134.769 720.933 131.92H719.933H718.933C718.933 135.311 720.163 138.211 722.599 140.56L723.293 139.84ZM719.933 131.92H720.933C720.933 128.983 721.949 126.565 723.987 124.6L723.293 123.88L722.599 123.16C720.157 125.515 718.933 128.457 718.933 131.92H719.933ZM723.293 123.88L723.974 124.612C726.084 122.648 728.789 121.64 732.173 121.64V120.64V119.64C728.357 119.64 725.142 120.792 722.611 123.148L723.293 123.88ZM732.173 120.64V121.64C735.471 121.64 738.09 122.644 740.119 124.6L740.813 123.88L741.507 123.16C739.056 120.796 735.915 119.64 732.173 119.64V120.64ZM740.813 123.88L740.131 124.612C742.246 126.581 743.293 128.995 743.293 131.92H744.293H745.293C745.293 128.445 744.02 125.499 741.494 123.148L740.813 123.88ZM744.293 131.92H743.293C743.293 134.757 742.252 137.134 740.131 139.108L740.813 139.84L741.494 140.572C744.014 138.226 745.293 135.323 745.293 131.92H744.293ZM740.813 139.84L740.132 139.107C738.105 140.989 735.481 141.96 732.173 141.96V142.96V143.96C735.904 143.96 739.04 142.851 741.493 140.573L740.813 139.84Z" fill="url(#paint0_linear_2071_46)" mask="url(#path-1-outside-1_2071_46)"/>
<path d="M214.974 117.12H183.534L178.494 132H157.014L187.494 47.76H211.254L241.734 132H220.014L214.974 117.12ZM209.694 101.28L199.254 70.44L188.934 101.28H209.694ZM271.53 76.2C273.93 72.52 276.93 69.64 280.53 67.56C284.13 65.4 288.13 64.32 292.53 64.32V86.04H286.89C281.77 86.04 277.93 87.16 275.37 89.4C272.81 91.56 271.53 95.4 271.53 100.92V132H251.01V65.04H271.53V76.2ZM329.578 132.96C323.738 132.96 318.538 131.96 313.978 129.96C309.418 127.96 305.818 125.24 303.178 121.8C300.538 118.28 299.058 114.36 298.738 110.04H319.018C319.258 112.36 320.338 114.24 322.258 115.68C324.178 117.12 326.538 117.84 329.338 117.84C331.898 117.84 333.858 117.36 335.218 116.4C336.658 115.36 337.378 114.04 337.378 112.44C337.378 110.52 336.378 109.12 334.378 108.24C332.378 107.28 329.138 106.24 324.658 105.12C319.858 104 315.858 102.84 312.658 101.64C309.458 100.36 306.698 98.4 304.378 95.76C302.058 93.04 300.898 89.4 300.898 84.84C300.898 81 301.938 77.52 304.018 74.4C306.178 71.2 309.298 68.68 313.378 66.84C317.538 65 322.458 64.08 328.138 64.08C336.538 64.08 343.138 66.16 347.938 70.32C352.818 74.48 355.618 80 356.338 86.88H337.378C337.058 84.56 336.018 82.72 334.258 81.36C332.578 80 330.338 79.32 327.538 79.32C325.138 79.32 323.298 79.8 322.018 80.76C320.738 81.64 320.098 82.88 320.098 84.48C320.098 86.4 321.098 87.84 323.098 88.8C325.178 89.76 328.378 90.72 332.698 91.68C337.658 92.96 341.698 94.24 344.818 95.52C347.938 96.72 350.658 98.72 352.978 101.52C355.378 104.24 356.618 107.92 356.698 112.56C356.698 116.48 355.578 120 353.338 123.12C351.178 126.16 348.018 128.56 343.858 130.32C339.778 132.08 335.018 132.96 329.578 132.96ZM379.573 58.08C375.973 58.08 373.013 57.04 370.693 54.96C368.453 52.8 367.333 50.16 367.333 47.04C367.333 43.84 368.453 41.2 370.693 39.12C373.013 36.96 375.973 35.88 379.573 35.88C383.093 35.88 385.973 36.96 388.213 39.12C390.533 41.2 391.693 43.84 391.693 47.04C391.693 50.16 390.533 52.8 388.213 54.96C385.973 57.04 383.093 58.08 379.573 58.08ZM389.773 65.04V132H369.253V65.04H389.773ZM425.163 74.52C427.163 71.4 429.923 68.88 433.443 66.96C436.963 65.04 441.083 64.08 445.803 64.08C451.323 64.08 456.323 65.48 460.803 68.28C465.283 71.08 468.803 75.08 471.363 80.28C474.003 85.48 475.323 91.52 475.323 98.4C475.323 105.28 474.003 111.36 471.363 116.64C468.803 121.84 465.283 125.88 460.803 128.76C456.323 131.56 451.323 132.96 445.803 132.96C441.163 132.96 437.043 132 433.443 130.08C429.923 128.16 427.163 125.68 425.163 122.64V163.92H404.643V65.04H425.163V74.52ZM454.443 98.4C454.443 93.28 453.003 89.28 450.123 86.4C447.323 83.44 443.843 81.96 439.683 81.96C435.603 81.96 432.123 83.44 429.243 86.4C426.443 89.36 425.043 93.4 425.043 98.52C425.043 103.64 426.443 107.68 429.243 110.64C432.123 113.6 435.603 115.08 439.683 115.08C443.763 115.08 447.243 113.6 450.123 110.64C453.003 107.6 454.443 103.52 454.443 98.4ZM527.008 132L506.608 103.92V132H486.088V43.2H506.608V92.28L526.888 65.04H552.208L524.368 98.64L552.448 132H527.008ZM556.188 98.4C556.188 91.52 557.468 85.48 560.028 80.28C562.668 75.08 566.228 71.08 570.708 68.28C575.188 65.48 580.188 64.08 585.708 64.08C590.428 64.08 594.548 65.04 598.068 66.96C601.668 68.88 604.428 71.4 606.348 74.52V65.04H626.868V132H606.348V122.52C604.348 125.64 601.548 128.16 597.948 130.08C594.428 132 590.308 132.96 585.588 132.96C580.148 132.96 575.188 131.56 570.708 128.76C566.228 125.88 562.668 121.84 560.028 116.64C557.468 111.36 556.188 105.28 556.188 98.4ZM606.348 98.52C606.348 93.4 604.908 89.36 602.028 86.4C599.228 83.44 595.788 81.96 591.708 81.96C587.628 81.96 584.148 83.44 581.268 86.4C578.468 89.28 577.068 93.28 577.068 98.4C577.068 103.52 578.468 107.6 581.268 110.64C584.148 113.6 587.628 115.08 591.708 115.08C595.788 115.08 599.228 113.6 602.028 110.64C604.908 107.68 606.348 103.64 606.348 98.52ZM682.513 64.32C690.353 64.32 696.593 66.88 701.233 72C705.953 77.04 708.313 84 708.313 92.88V132H687.913V95.64C687.913 91.16 686.753 87.68 684.433 85.2C682.113 82.72 678.993 81.48 675.073 81.48C671.153 81.48 668.033 82.72 665.713 85.2C663.393 87.68 662.233 91.16 662.233 95.64V132H641.713V65.04H662.233V73.92C664.313 70.96 667.113 68.64 670.633 66.96C674.153 65.2 678.113 64.32 682.513 64.32ZM732.173 132.96C728.573 132.96 725.613 131.92 723.293 129.84C721.053 127.68 719.933 125.04 719.933 121.92C719.933 118.72 721.053 116.04 723.293 113.88C725.613 111.72 728.573 110.64 732.173 110.64C735.693 110.64 738.573 111.72 740.813 113.88C743.133 116.04 744.293 118.72 744.293 121.92C744.293 125.04 743.133 127.68 740.813 129.84C738.573 131.92 735.693 132.96 732.173 132.96Z" fill="url(#paint1_linear_2071_46)"/>
<defs>
<linearGradient id="paint0_linear_2071_46" x1="0" y1="69.5" x2="749" y2="69.5" gradientUnits="userSpaceOnUse">
<stop stop-color="#FFF4E0"/>
<stop offset="1" stop-color="#EFD9A7"/>
</linearGradient>
<linearGradient id="paint1_linear_2071_46" x1="374.5" y1="-9.37897e-08" x2="375" y2="179.5" gradientUnits="userSpaceOnUse">
<stop stop-color="#FFF5E4"/>
<stop offset="1" stop-color="#EFD9A7"/>
</linearGradient>
</defs>
</svg>
