<svg width="749" height="175" viewBox="0 0 749 175" fill="none" xmlns="http://www.w3.org/2000/svg">
<mask id="path-1-outside-1_2071_47" maskUnits="userSpaceOnUse" x="2" y="44" width="604" height="131" fill="black">
<rect fill="white" x="2" y="44" width="604" height="131"/>
<path d="M3.96 99.76C3.96 91.44 5.76 84.04 9.36 77.56C12.96 71 17.96 65.92 24.36 62.32C30.84 58.64 38.16 56.8 46.32 56.8C56.32 56.8 64.88 59.44 72 64.72C79.12 70 83.88 77.2 86.28 86.32H63.72C62.04 82.8 59.64 80.12 56.52 78.28C53.48 76.44 50 75.52 46.08 75.52C39.76 75.52 34.64 77.72 30.72 82.12C26.8 86.52 24.84 92.4 24.84 99.76C24.84 107.12 26.8 113 30.72 117.4C34.64 121.8 39.76 124 46.08 124C50 124 53.48 123.08 56.52 121.24C59.64 119.4 62.04 116.72 63.72 113.2H86.28C83.88 122.32 79.12 129.52 72 134.8C64.88 140 56.32 142.6 46.32 142.6C38.16 142.6 30.84 140.8 24.36 137.2C17.96 133.52 12.96 128.44 9.36 121.96C5.76 115.48 3.96 108.08 3.96 99.76ZM109.166 68.08C105.566 68.08 102.606 67.04 100.286 64.96C98.0463 62.8 96.9263 60.16 96.9263 57.04C96.9263 53.84 98.0463 51.2 100.286 49.12C102.606 46.96 105.566 45.88 109.166 45.88C112.686 45.88 115.566 46.96 117.806 49.12C120.126 51.2 121.286 53.84 121.286 57.04C121.286 60.16 120.126 62.8 117.806 64.96C115.566 67.04 112.686 68.08 109.166 68.08ZM119.366 75.04V142H98.8463V75.04H119.366ZM154.757 84.52C156.757 81.4 159.517 78.88 163.037 76.96C166.557 75.04 170.677 74.08 175.397 74.08C180.917 74.08 185.917 75.48 190.397 78.28C194.877 81.08 198.397 85.08 200.957 90.28C203.597 95.48 204.917 101.52 204.917 108.4C204.917 115.28 203.597 121.36 200.957 126.64C198.397 131.84 194.877 135.88 190.397 138.76C185.917 141.56 180.917 142.96 175.397 142.96C170.757 142.96 166.637 142 163.037 140.08C159.517 138.16 156.757 135.68 154.757 132.64V173.92H134.237V75.04H154.757V84.52ZM184.037 108.4C184.037 103.28 182.597 99.28 179.717 96.4C176.917 93.44 173.437 91.96 169.277 91.96C165.197 91.96 161.717 93.44 158.837 96.4C156.037 99.36 154.637 103.4 154.637 108.52C154.637 113.64 156.037 117.68 158.837 120.64C161.717 123.6 165.197 125.08 169.277 125.08C173.357 125.08 176.837 123.6 179.717 120.64C182.597 117.6 184.037 113.52 184.037 108.4ZM253.002 124.6V142H242.562C235.122 142 229.322 140.2 225.162 136.6C221.002 132.92 218.922 126.96 218.922 118.72V92.08H210.762V75.04H218.922V58.72H239.442V75.04H252.882V92.08H239.442V118.96C239.442 120.96 239.922 122.4 240.882 123.28C241.842 124.16 243.442 124.6 245.682 124.6H253.002ZM260.352 108.4C260.352 101.52 261.632 95.48 264.192 90.28C266.832 85.08 270.392 81.08 274.872 78.28C279.352 75.48 284.352 74.08 289.872 74.08C294.592 74.08 298.712 75.04 302.232 76.96C305.832 78.88 308.592 81.4 310.512 84.52V75.04H331.032V142H310.512V132.52C308.512 135.64 305.712 138.16 302.112 140.08C298.592 142 294.472 142.96 289.752 142.96C284.312 142.96 279.352 141.56 274.872 138.76C270.392 135.88 266.832 131.84 264.192 126.64C261.632 121.36 260.352 115.28 260.352 108.4ZM310.512 108.52C310.512 103.4 309.072 99.36 306.192 96.4C303.392 93.44 299.952 91.96 295.872 91.96C291.792 91.96 288.312 93.44 285.432 96.4C282.632 99.28 281.232 103.28 281.232 108.4C281.232 113.52 282.632 117.6 285.432 120.64C288.312 123.6 291.792 125.08 295.872 125.08C299.952 125.08 303.392 123.6 306.192 120.64C309.072 117.68 310.512 113.64 310.512 108.52ZM386.798 142L366.398 113.92V142H345.878V53.2H366.398V102.28L386.678 75.04H411.998L384.158 108.64L412.238 142H386.798ZM415.977 108.4C415.977 101.52 417.257 95.48 419.817 90.28C422.457 85.08 426.017 81.08 430.497 78.28C434.977 75.48 439.977 74.08 445.497 74.08C450.217 74.08 454.337 75.04 457.857 76.96C461.457 78.88 464.217 81.4 466.137 84.52V75.04H486.657V142H466.137V132.52C464.137 135.64 461.337 138.16 457.737 140.08C454.217 142 450.097 142.96 445.377 142.96C439.937 142.96 434.977 141.56 430.497 138.76C426.017 135.88 422.457 131.84 419.817 126.64C417.257 121.36 415.977 115.28 415.977 108.4ZM466.137 108.52C466.137 103.4 464.697 99.36 461.817 96.4C459.017 93.44 455.577 91.96 451.497 91.96C447.417 91.96 443.937 93.44 441.057 96.4C438.257 99.28 436.857 103.28 436.857 108.4C436.857 113.52 438.257 117.6 441.057 120.64C443.937 123.6 447.417 125.08 451.497 125.08C455.577 125.08 459.017 123.6 461.817 120.64C464.697 117.68 466.137 113.64 466.137 108.52ZM542.303 74.32C550.143 74.32 556.383 76.88 561.023 82C565.743 87.04 568.103 94 568.103 102.88V142H547.703V105.64C547.703 101.16 546.543 97.68 544.223 95.2C541.903 92.72 538.783 91.48 534.863 91.48C530.943 91.48 527.823 92.72 525.503 95.2C523.183 97.68 522.023 101.16 522.023 105.64V142H501.503V75.04H522.023V83.92C524.103 80.96 526.903 78.64 530.423 76.96C533.943 75.2 537.903 74.32 542.303 74.32ZM604.442 123.04L591.122 157.48H578.042L585.002 123.04H604.442Z"/>
</mask>
<path d="M9.36 77.56L10.2342 78.0456L10.2367 78.0411L9.36 77.56ZM24.36 62.32L24.8503 63.1916L24.8538 63.1896L24.36 62.32ZM72 64.72L72.5957 63.9168L72.5957 63.9168L72 64.72ZM86.28 86.32V87.32H87.5772L87.2471 86.0655L86.28 86.32ZM63.72 86.32L62.8175 86.7507L63.0892 87.32H63.72V86.32ZM56.52 78.28L56.0022 79.1356L56.012 79.1414L56.52 78.28ZM30.72 82.12L31.4667 82.7852L31.4667 82.7852L30.72 82.12ZM56.52 121.24L56.012 120.379L56.0022 120.384L56.52 121.24ZM63.72 113.2V112.2H63.0892L62.8175 112.769L63.72 113.2ZM86.28 113.2L87.2471 113.454L87.5772 112.2H86.28V113.2ZM72 134.8L72.5898 135.608L72.5957 135.603L72 134.8ZM24.36 137.2L23.8615 138.067L23.8679 138.071L23.8744 138.074L24.36 137.2ZM9.36 121.96L10.2342 121.474L10.2342 121.474L9.36 121.96ZM3.96 99.76H4.96C4.96 91.5888 6.72639 84.3596 10.2342 78.0456L9.36 77.56L8.48584 77.0744C4.79361 83.7204 2.96 91.2912 2.96 99.76H3.96ZM9.36 77.56L10.2367 78.0411C13.7486 71.6415 18.6162 66.6982 24.8503 63.1916L24.36 62.32L23.8697 61.4484C17.3038 65.1418 12.1714 70.3585 8.48333 77.0789L9.36 77.56ZM24.36 62.32L24.8538 63.1896C31.1692 59.603 38.3162 57.8 46.32 57.8V56.8V55.8C38.0038 55.8 30.5108 57.677 23.8662 61.4504L24.36 62.32ZM46.32 56.8V57.8C56.1342 57.8 64.4784 60.3871 71.4043 65.5232L72 64.72L72.5957 63.9168C65.2816 58.4928 56.5058 55.8 46.32 55.8V56.8ZM72 64.72L71.4043 65.5232C78.3296 70.6588 82.9668 77.6592 85.3129 86.5745L86.28 86.32L87.2471 86.0655C84.7932 76.7408 79.9104 69.3412 72.5957 63.9168L72 64.72ZM86.28 86.32V85.32H63.72V86.32V87.32H86.28V86.32ZM63.72 86.32L64.6225 85.8893C62.8637 82.2041 60.3327 79.3676 57.028 77.4186L56.52 78.28L56.012 79.1414C58.9473 80.8724 61.2163 83.3959 62.8175 86.7507L63.72 86.32ZM56.52 78.28L57.0378 77.4245C53.8258 75.4804 50.1631 74.52 46.08 74.52V75.52V76.52C49.8369 76.52 53.1342 77.3996 56.0022 79.1355L56.52 78.28ZM46.08 75.52V74.52C39.4981 74.52 34.0981 76.825 29.9733 81.4548L30.72 82.12L31.4667 82.7852C35.1819 78.615 40.0219 76.52 46.08 76.52V75.52ZM30.72 82.12L29.9733 81.4548C25.8524 86.0803 23.84 92.2181 23.84 99.76H24.84H25.84C25.84 92.5819 27.7476 86.9597 31.4667 82.7852L30.72 82.12ZM24.84 99.76H23.84C23.84 107.302 25.8524 113.44 29.9733 118.065L30.72 117.4L31.4667 116.735C27.7476 112.56 25.84 106.938 25.84 99.76H24.84ZM30.72 117.4L29.9733 118.065C34.0981 122.695 39.4981 125 46.08 125V124V123C40.0219 123 35.1819 120.905 31.4667 116.735L30.72 117.4ZM46.08 124V125C50.1631 125 53.8258 124.04 57.0378 122.095L56.52 121.24L56.0022 120.384C53.1342 122.12 49.8369 123 46.08 123V124ZM56.52 121.24L57.028 122.101C60.3327 120.152 62.8637 117.316 64.6225 113.631L63.72 113.2L62.8175 112.769C61.2163 116.124 58.9473 118.648 56.012 120.379L56.52 121.24ZM63.72 113.2V114.2H86.28V113.2V112.2H63.72V113.2ZM86.28 113.2L85.3129 112.946C82.9668 121.861 78.3296 128.861 71.4043 133.997L72 134.8L72.5957 135.603C79.9104 130.179 84.7932 122.779 87.2471 113.454L86.28 113.2ZM72 134.8L71.4102 133.992C64.4839 139.051 56.1377 141.6 46.32 141.6V142.6V143.6C56.5024 143.6 65.2761 140.949 72.5898 135.608L72 134.8ZM46.32 142.6V141.6C38.3124 141.6 31.1625 139.835 24.8456 136.326L24.36 137.2L23.8744 138.074C30.5175 141.765 38.0076 143.6 46.32 143.6V142.6ZM24.36 137.2L24.8585 136.333C18.6167 132.744 13.7463 127.796 10.2342 121.474L9.36 121.96L8.48584 122.446C12.1737 129.084 17.3033 134.296 23.8615 138.067L24.36 137.2ZM9.36 121.96L10.2342 121.474C6.72639 115.16 4.96 107.931 4.96 99.76H3.96H2.96C2.96 108.229 4.79361 115.8 8.48584 122.446L9.36 121.96ZM100.286 64.96L99.5921 65.6798L99.6052 65.6924L99.6187 65.7046L100.286 64.96ZM100.286 49.12L100.967 49.8528L100.968 49.8519L100.286 49.12ZM117.806 49.12L117.112 49.8398L117.125 49.8524L117.139 49.8646L117.806 49.12ZM117.806 64.96L118.487 65.6928L118.488 65.6919L117.806 64.96ZM119.366 75.04H120.366V74.04H119.366V75.04ZM119.366 142V143H120.366V142H119.366ZM98.8463 142H97.8463V143H98.8463V142ZM98.8463 75.04V74.04H97.8463V75.04H98.8463ZM109.166 68.08V67.08C105.772 67.08 103.062 66.1056 100.954 64.2154L100.286 64.96L99.6187 65.7046C102.15 67.9744 105.361 69.08 109.166 69.08V68.08ZM100.286 64.96L100.98 64.2402C98.9364 62.2692 97.9263 59.8893 97.9263 57.04H96.9263H95.9263C95.9263 60.4307 97.1561 63.3308 99.5921 65.6798L100.286 64.96ZM96.9263 57.04H97.9263C97.9263 54.1034 98.941 51.7338 100.967 49.8528L100.286 49.12L99.6058 48.3872C97.1515 50.6662 95.9263 53.5766 95.9263 57.04H96.9263ZM100.286 49.12L100.968 49.8519C103.077 47.8878 105.782 46.88 109.166 46.88V45.88V44.88C105.35 44.88 102.135 46.0322 99.6048 48.3881L100.286 49.12ZM109.166 45.88V46.88C112.464 46.88 115.083 47.8836 117.112 49.8398L117.806 49.12L118.5 48.4001C116.049 46.0364 112.908 44.88 109.166 44.88V45.88ZM117.806 49.12L117.139 49.8646C119.241 51.7491 120.286 54.1154 120.286 57.04H121.286H122.286C122.286 53.5646 121.012 50.6509 118.474 48.3754L117.806 49.12ZM121.286 57.04H120.286C120.286 59.8774 119.245 62.2538 117.125 64.2281L117.806 64.96L118.488 65.6919C121.007 63.3462 122.286 60.4426 122.286 57.04H121.286ZM117.806 64.96L117.126 64.2272C115.099 66.1094 112.475 67.08 109.166 67.08V68.08V69.08C112.898 69.08 116.034 67.9705 118.487 65.6928L117.806 64.96ZM119.366 75.04H118.366V142H119.366H120.366V75.04H119.366ZM119.366 142V141H98.8463V142V143H119.366V142ZM98.8463 142H99.8463V75.04H98.8463H97.8463V142H98.8463ZM98.8463 75.04V76.04H119.366V75.04V74.04H98.8463V75.04ZM154.757 84.52H153.757V87.933L155.599 85.0597L154.757 84.52ZM163.037 76.96L162.558 76.0821L162.558 76.0821L163.037 76.96ZM190.397 78.28L189.867 79.128L189.867 79.128L190.397 78.28ZM200.957 90.28L200.06 90.7217L200.065 90.7327L200.957 90.28ZM200.957 126.64L200.062 126.193L200.06 126.198L200.957 126.64ZM190.397 138.76L190.927 139.608L190.938 139.601L190.397 138.76ZM163.037 140.08L162.558 140.958L162.566 140.962L163.037 140.08ZM154.757 132.64L155.592 132.09L153.757 129.301V132.64H154.757ZM154.757 173.92V174.92H155.757V173.92H154.757ZM134.237 173.92H133.237V174.92H134.237V173.92ZM134.237 75.04V74.04H133.237V75.04H134.237ZM154.757 75.04H155.757V74.04H154.757V75.04ZM179.717 96.4L178.99 97.0872L179 97.0973L179.01 97.1071L179.717 96.4ZM158.837 96.4L158.12 95.7026L158.11 95.7128L158.837 96.4ZM158.837 120.64L158.11 121.327L158.12 121.337L158.837 120.64ZM179.717 120.64L180.434 121.337L180.443 121.328L179.717 120.64ZM154.757 84.52L155.599 85.0597C157.501 82.0926 160.131 79.6842 163.516 77.8379L163.037 76.96L162.558 76.0821C158.903 78.0758 156.013 80.7074 153.915 83.9803L154.757 84.52ZM163.037 76.96L163.516 77.8379C166.865 76.0111 170.814 75.08 175.397 75.08V74.08V73.08C170.539 73.08 166.249 74.0689 162.558 76.0821L163.037 76.96ZM175.397 74.08V75.08C180.738 75.08 185.553 76.4319 189.867 79.128L190.397 78.28L190.927 77.432C186.281 74.5281 181.095 73.08 175.397 73.08V74.08ZM190.397 78.28L189.867 79.128C194.174 81.8199 197.574 85.6719 200.06 90.7217L200.957 90.28L201.854 89.8383C199.22 84.4881 195.58 80.3401 190.927 77.432L190.397 78.28ZM200.957 90.28L200.065 90.7327C202.622 95.7693 203.917 101.649 203.917 108.4H204.917H205.917C205.917 101.391 204.572 95.1907 201.849 89.8273L200.957 90.28ZM204.917 108.4H203.917C203.917 115.15 202.622 121.073 200.062 126.193L200.957 126.64L201.851 127.087C204.571 121.647 205.917 115.41 205.917 108.4H204.917ZM200.957 126.64L200.06 126.198C197.573 131.25 194.17 135.146 189.856 137.919L190.397 138.76L190.938 139.601C195.584 136.614 199.221 132.43 201.854 127.082L200.957 126.64ZM190.397 138.76L189.867 137.912C185.553 140.608 180.738 141.96 175.397 141.96V142.96V143.96C181.095 143.96 186.281 142.512 190.927 139.608L190.397 138.76ZM175.397 142.96V141.96C170.898 141.96 166.944 141.03 163.507 139.198L163.037 140.08L162.566 140.962C166.33 142.97 170.616 143.96 175.397 143.96V142.96ZM163.037 140.08L163.516 139.202C160.125 137.352 157.493 134.98 155.592 132.09L154.757 132.64L153.921 133.19C156.021 136.38 158.909 138.968 162.558 140.958L163.037 140.08ZM154.757 132.64H153.757V173.92H154.757H155.757V132.64H154.757ZM154.757 173.92V172.92H134.237V173.92V174.92H154.757V173.92ZM134.237 173.92H135.237V75.04H134.237H133.237V173.92H134.237ZM134.237 75.04V76.04H154.757V75.04V74.04H134.237V75.04ZM154.757 75.04H153.757V84.52H154.757H155.757V75.04H154.757ZM184.037 108.4H185.037C185.037 103.087 183.537 98.8058 180.424 95.6929L179.717 96.4L179.01 97.1071C181.657 99.7542 183.037 103.473 183.037 108.4H184.037ZM179.717 96.4L180.443 95.7128C177.45 92.5484 173.705 90.96 169.277 90.96V91.96V92.96C173.169 92.96 176.384 94.3316 178.99 97.0872L179.717 96.4ZM169.277 91.96V90.96C164.923 90.96 161.186 92.5518 158.12 95.7026L158.837 96.4L159.554 97.0974C162.248 94.3282 165.471 92.96 169.277 92.96V91.96ZM158.837 96.4L158.11 95.7128C155.093 98.9029 153.637 103.213 153.637 108.52H154.637H155.637C155.637 103.587 156.981 99.817 159.563 97.0872L158.837 96.4ZM154.637 108.52H153.637C153.637 113.827 155.093 118.137 158.11 121.327L158.837 120.64L159.563 119.953C156.981 117.223 155.637 113.453 155.637 108.52H154.637ZM158.837 120.64L158.12 121.337C161.186 124.488 164.923 126.08 169.277 126.08V125.08V124.08C165.471 124.08 162.248 122.712 159.554 119.943L158.837 120.64ZM169.277 125.08V126.08C173.631 126.08 177.368 124.488 180.434 121.337L179.717 120.64L179 119.943C176.306 122.712 173.083 124.08 169.277 124.08V125.08ZM179.717 120.64L180.443 121.328C183.536 118.063 185.037 113.716 185.037 108.4H184.037H183.037C183.037 113.324 181.658 117.137 178.991 119.952L179.717 120.64ZM253.002 124.6H254.002V123.6H253.002V124.6ZM253.002 142V143H254.002V142H253.002ZM225.162 136.6L224.5 137.349L224.508 137.356L225.162 136.6ZM218.922 92.08H219.922V91.08H218.922V92.08ZM210.762 92.08H209.762V93.08H210.762V92.08ZM210.762 75.04V74.04H209.762V75.04H210.762ZM218.922 75.04V76.04H219.922V75.04H218.922ZM218.922 58.72V57.72H217.922V58.72H218.922ZM239.442 58.72H240.442V57.72H239.442V58.72ZM239.442 75.04H238.442V76.04H239.442V75.04ZM252.882 75.04H253.882V74.04H252.882V75.04ZM252.882 92.08V93.08H253.882V92.08H252.882ZM239.442 92.08V91.08H238.442V92.08H239.442ZM240.882 123.28L240.206 124.017L240.206 124.017L240.882 123.28ZM253.002 124.6H252.002V142H253.002H254.002V124.6H253.002ZM253.002 142V141H242.562V142V143H253.002V142ZM242.562 142V141C235.277 141 229.739 139.239 225.817 135.844L225.162 136.6L224.508 137.356C228.905 141.161 234.967 143 242.562 143V142ZM225.162 136.6L225.825 135.851C221.966 132.437 219.922 126.814 219.922 118.72H218.922H217.922C217.922 127.106 220.039 133.403 224.5 137.349L225.162 136.6ZM218.922 118.72H219.922V92.08H218.922H217.922V118.72H218.922ZM218.922 92.08V91.08H210.762V92.08V93.08H218.922V92.08ZM210.762 92.08H211.762V75.04H210.762H209.762V92.08H210.762ZM210.762 75.04V76.04H218.922V75.04V74.04H210.762V75.04ZM218.922 75.04H219.922V58.72H218.922H217.922V75.04H218.922ZM218.922 58.72V59.72H239.442V58.72V57.72H218.922V58.72ZM239.442 58.72H238.442V75.04H239.442H240.442V58.72H239.442ZM239.442 75.04V76.04H252.882V75.04V74.04H239.442V75.04ZM252.882 75.04H251.882V92.08H252.882H253.882V75.04H252.882ZM252.882 92.08V91.08H239.442V92.08V93.08H252.882V92.08ZM239.442 92.08H238.442V118.96H239.442H240.442V92.08H239.442ZM239.442 118.96H238.442C238.442 121.091 238.951 122.866 240.206 124.017L240.882 123.28L241.558 122.543C240.893 121.934 240.442 120.829 240.442 118.96H239.442ZM240.882 123.28L240.206 124.017C241.445 125.152 243.358 125.6 245.682 125.6V124.6V123.6C243.526 123.6 242.24 123.168 241.558 122.543L240.882 123.28ZM245.682 124.6V125.6H253.002V124.6V123.6H245.682V124.6ZM264.192 90.28L263.3 89.8273L263.295 89.8383L264.192 90.28ZM274.872 78.28L275.402 79.128L275.402 79.128L274.872 78.28ZM302.232 76.96L301.753 77.8379L301.762 77.8423L302.232 76.96ZM310.512 84.52L309.661 85.0441L311.512 88.053V84.52H310.512ZM310.512 75.04V74.04H309.512V75.04H310.512ZM331.032 75.04H332.032V74.04H331.032V75.04ZM331.032 142V143H332.032V142H331.032ZM310.512 142H309.512V143H310.512V142ZM310.512 132.52H311.512V129.107L309.67 131.98L310.512 132.52ZM302.112 140.08L301.642 139.198L301.633 139.202L302.112 140.08ZM274.872 138.76L274.331 139.601L274.342 139.608L274.872 138.76ZM264.192 126.64L263.292 127.076L263.296 127.085L263.301 127.093L264.192 126.64ZM306.192 96.4L305.466 97.0873L305.475 97.0974L306.192 96.4ZM285.432 96.4L284.715 95.7026L284.715 95.7029L285.432 96.4ZM285.432 120.64L284.697 121.317L284.706 121.328L284.715 121.337L285.432 120.64ZM306.192 120.64L305.475 119.943L305.466 119.953L306.192 120.64ZM260.352 108.4H261.352C261.352 101.645 262.609 95.7609 265.089 90.7217L264.192 90.28L263.295 89.8383C260.656 95.1991 259.352 101.395 259.352 108.4H260.352ZM264.192 90.28L265.084 90.7327C267.65 85.6775 271.092 81.8218 275.402 79.128L274.872 78.28L274.342 77.432C269.692 80.3382 266.014 84.4824 263.301 89.8273L264.192 90.28ZM274.872 78.28L275.402 79.128C279.716 76.4319 284.531 75.08 289.872 75.08V74.08V73.08C284.174 73.08 278.988 74.5281 274.342 77.432L274.872 78.28ZM289.872 74.08V75.08C294.455 75.08 298.404 76.0111 301.753 77.8379L302.232 76.96L302.711 76.0821C299.02 74.0689 294.73 73.08 289.872 73.08V74.08ZM302.232 76.96L301.762 77.8423C305.223 79.6886 307.844 82.0919 309.661 85.0441L310.512 84.52L311.364 83.9959C309.341 80.7081 306.441 78.0714 302.703 76.0776L302.232 76.96ZM310.512 84.52H311.512V75.04H310.512H309.512V84.52H310.512ZM310.512 75.04V76.04H331.032V75.04V74.04H310.512V75.04ZM331.032 75.04H330.032V142H331.032H332.032V75.04H331.032ZM331.032 142V141H310.512V142V143H331.032V142ZM310.512 142H311.512V132.52H310.512H309.512V142H310.512ZM310.512 132.52L309.67 131.98C307.772 134.942 305.106 137.35 301.642 139.198L302.112 140.08L302.583 140.962C306.318 138.97 309.253 136.338 311.354 133.06L310.512 132.52ZM302.112 140.08L301.633 139.202C298.284 141.029 294.335 141.96 289.752 141.96V142.96V143.96C294.61 143.96 298.9 142.971 302.591 140.958L302.112 140.08ZM289.752 142.96V141.96C284.494 141.96 279.718 140.61 275.402 137.912L274.872 138.76L274.342 139.608C278.986 142.51 284.131 143.96 289.752 143.96V142.96ZM274.872 138.76L275.413 137.919C271.096 135.144 267.651 131.244 265.084 126.187L264.192 126.64L263.301 127.093C266.013 132.436 269.688 136.616 274.331 139.601L274.872 138.76ZM264.192 126.64L265.092 126.204C262.608 121.081 261.352 115.155 261.352 108.4H260.352H259.352C259.352 115.405 260.656 121.639 263.292 127.076L264.192 126.64ZM310.512 108.52H311.512C311.512 103.205 310.012 98.8917 306.909 95.7026L306.192 96.4L305.475 97.0974C308.133 99.8283 309.512 103.595 309.512 108.52H310.512ZM306.192 96.4L306.919 95.7128C303.929 92.5528 300.227 90.96 295.872 90.96V91.96V92.96C299.678 92.96 302.855 94.3272 305.466 97.0872L306.192 96.4ZM295.872 91.96V90.96C291.519 90.96 287.781 92.5518 284.715 95.7026L285.432 96.4L286.149 97.0974C288.843 94.3282 292.066 92.96 295.872 92.96V91.96ZM285.432 96.4L284.715 95.7029C281.688 98.8171 280.232 103.094 280.232 108.4H281.232H282.232C282.232 103.466 283.577 99.7429 286.149 97.0971L285.432 96.4ZM281.232 108.4H280.232C280.232 113.708 281.688 118.051 284.697 121.317L285.432 120.64L286.168 119.963C283.576 117.149 282.232 113.332 282.232 108.4H281.232ZM285.432 120.64L284.715 121.337C287.781 124.488 291.519 126.08 295.872 126.08V125.08V124.08C292.066 124.08 288.843 122.712 286.149 119.943L285.432 120.64ZM295.872 125.08V126.08C300.227 126.08 303.929 124.487 306.919 121.327L306.192 120.64L305.466 119.953C302.855 122.713 299.678 124.08 295.872 124.08V125.08ZM306.192 120.64L306.909 121.337C310.012 118.148 311.512 113.835 311.512 108.52H310.512H309.512C309.512 113.445 308.133 117.212 305.475 119.943L306.192 120.64ZM386.798 142L385.988 142.588L386.288 143H386.798V142ZM366.398 113.92L367.207 113.332L365.398 110.842V113.92H366.398ZM366.398 142V143H367.398V142H366.398ZM345.878 142H344.878V143H345.878V142ZM345.878 53.2V52.2H344.878V53.2H345.878ZM366.398 53.2H367.398V52.2H366.398V53.2ZM366.398 102.28H365.398V105.298L367.2 102.877L366.398 102.28ZM386.678 75.04V74.04H386.175L385.875 74.4428L386.678 75.04ZM411.998 75.04L412.768 75.678L414.125 74.04H411.998V75.04ZM384.158 108.64L383.387 108.002L382.855 108.645L383.392 109.284L384.158 108.64ZM412.238 142V143H414.386L413.003 141.356L412.238 142ZM386.798 142L387.607 141.412L367.207 113.332L366.398 113.92L365.588 114.508L385.988 142.588L386.798 142ZM366.398 113.92H365.398V142H366.398H367.398V113.92H366.398ZM366.398 142V141H345.878V142V143H366.398V142ZM345.878 142H346.878V53.2H345.878H344.878V142H345.878ZM345.878 53.2V54.2H366.398V53.2V52.2H345.878V53.2ZM366.398 53.2H365.398V102.28H366.398H367.398V53.2H366.398ZM366.398 102.28L367.2 102.877L387.48 75.6372L386.678 75.04L385.875 74.4428L365.595 101.683L366.398 102.28ZM386.678 75.04V76.04H411.998V75.04V74.04H386.678V75.04ZM411.998 75.04L411.227 74.402L383.387 108.002L384.158 108.64L384.928 109.278L412.768 75.678L411.998 75.04ZM384.158 108.64L383.392 109.284L411.472 142.644L412.238 142L413.003 141.356L384.923 107.996L384.158 108.64ZM412.238 142V141H386.798V142V143H412.238V142ZM419.817 90.28L418.925 89.8273L418.92 89.8383L419.817 90.28ZM430.497 78.28L431.027 79.128L431.027 79.128L430.497 78.28ZM457.857 76.96L457.378 77.8379L457.387 77.8423L457.857 76.96ZM466.137 84.52L465.286 85.0441L467.137 88.053V84.52H466.137ZM466.137 75.04V74.04H465.137V75.04H466.137ZM486.657 75.04H487.657V74.04H486.657V75.04ZM486.657 142V143H487.657V142H486.657ZM466.137 142H465.137V143H466.137V142ZM466.137 132.52H467.137V129.107L465.295 131.98L466.137 132.52ZM457.737 140.08L457.267 139.198L457.258 139.202L457.737 140.08ZM430.497 138.76L429.956 139.601L429.967 139.608L430.497 138.76ZM419.817 126.64L418.917 127.076L418.921 127.085L418.926 127.093L419.817 126.64ZM461.817 96.4L461.091 97.0873L461.1 97.0974L461.817 96.4ZM441.057 96.4L440.34 95.7026L440.34 95.7029L441.057 96.4ZM441.057 120.64L440.322 121.317L440.331 121.328L440.34 121.337L441.057 120.64ZM461.817 120.64L461.1 119.943L461.091 119.953L461.817 120.64ZM415.977 108.4H416.977C416.977 101.645 418.234 95.7609 420.714 90.7217L419.817 90.28L418.92 89.8383C416.281 95.1991 414.977 101.395 414.977 108.4H415.977ZM419.817 90.28L420.709 90.7327C423.275 85.6775 426.717 81.8218 431.027 79.128L430.497 78.28L429.967 77.432C425.317 80.3382 421.639 84.4824 418.926 89.8273L419.817 90.28ZM430.497 78.28L431.027 79.128C435.341 76.4319 440.156 75.08 445.497 75.08V74.08V73.08C439.799 73.08 434.613 74.5281 429.967 77.432L430.497 78.28ZM445.497 74.08V75.08C450.08 75.08 454.029 76.0111 457.378 77.8379L457.857 76.96L458.336 76.0821C454.645 74.0689 450.355 73.08 445.497 73.08V74.08ZM457.857 76.96L457.387 77.8423C460.848 79.6886 463.469 82.0919 465.286 85.0441L466.137 84.52L466.989 83.9959C464.966 80.7081 462.066 78.0714 458.328 76.0776L457.857 76.96ZM466.137 84.52H467.137V75.04H466.137H465.137V84.52H466.137ZM466.137 75.04V76.04H486.657V75.04V74.04H466.137V75.04ZM486.657 75.04H485.657V142H486.657H487.657V75.04H486.657ZM486.657 142V141H466.137V142V143H486.657V142ZM466.137 142H467.137V132.52H466.137H465.137V142H466.137ZM466.137 132.52L465.295 131.98C463.397 134.942 460.731 137.35 457.267 139.198L457.737 140.08L458.208 140.962C461.943 138.97 464.878 136.338 466.979 133.06L466.137 132.52ZM457.737 140.08L457.258 139.202C453.909 141.029 449.96 141.96 445.377 141.96V142.96V143.96C450.235 143.96 454.525 142.971 458.216 140.958L457.737 140.08ZM445.377 142.96V141.96C440.119 141.96 435.343 140.61 431.027 137.912L430.497 138.76L429.967 139.608C434.611 142.51 439.756 143.96 445.377 143.96V142.96ZM430.497 138.76L431.038 137.919C426.721 135.144 423.276 131.244 420.709 126.187L419.817 126.64L418.926 127.093C421.638 132.436 425.313 136.616 429.956 139.601L430.497 138.76ZM419.817 126.64L420.717 126.204C418.233 121.081 416.977 115.155 416.977 108.4H415.977H414.977C414.977 115.405 416.281 121.639 418.917 127.076L419.817 126.64ZM466.137 108.52H467.137C467.137 103.205 465.637 98.8917 462.534 95.7026L461.817 96.4L461.1 97.0974C463.758 99.8283 465.137 103.595 465.137 108.52H466.137ZM461.817 96.4L462.544 95.7128C459.554 92.5528 455.852 90.96 451.497 90.96V91.96V92.96C455.303 92.96 458.48 94.3272 461.091 97.0872L461.817 96.4ZM451.497 91.96V90.96C447.144 90.96 443.406 92.5518 440.34 95.7026L441.057 96.4L441.774 97.0974C444.468 94.3282 447.691 92.96 451.497 92.96V91.96ZM441.057 96.4L440.34 95.7029C437.313 98.8171 435.857 103.094 435.857 108.4H436.857H437.857C437.857 103.466 439.202 99.7429 441.774 97.0971L441.057 96.4ZM436.857 108.4H435.857C435.857 113.708 437.313 118.051 440.322 121.317L441.057 120.64L441.793 119.963C439.201 117.149 437.857 113.332 437.857 108.4H436.857ZM441.057 120.64L440.34 121.337C443.406 124.488 447.144 126.08 451.497 126.08V125.08V124.08C447.691 124.08 444.468 122.712 441.774 119.943L441.057 120.64ZM451.497 125.08V126.08C455.852 126.08 459.554 124.487 462.544 121.327L461.817 120.64L461.091 119.953C458.48 122.713 455.303 124.08 451.497 124.08V125.08ZM461.817 120.64L462.534 121.337C465.637 118.148 467.137 113.835 467.137 108.52H466.137H465.137C465.137 113.445 463.758 117.212 461.1 119.943L461.817 120.64ZM561.023 82L560.282 82.6715L560.287 82.6776L560.293 82.6836L561.023 82ZM568.103 142V143H569.103V142H568.103ZM547.703 142H546.703V143H547.703V142ZM544.223 95.2L543.492 95.8832L543.492 95.8832L544.223 95.2ZM525.503 95.2L526.233 95.8832L526.233 95.8832L525.503 95.2ZM522.023 142V143H523.023V142H522.023ZM501.503 142H500.503V143H501.503V142ZM501.503 75.04V74.04H500.503V75.04H501.503ZM522.023 75.04H523.023V74.04H522.023V75.04ZM522.023 83.92H521.023V87.0824L522.841 84.4949L522.023 83.92ZM530.423 76.96L530.853 77.8625L530.862 77.8585L530.87 77.8544L530.423 76.96ZM542.303 74.32V75.32C549.902 75.32 555.858 77.7899 560.282 82.6715L561.023 82L561.763 81.3285C556.907 75.9701 550.383 73.32 542.303 73.32V74.32ZM561.023 82L560.293 82.6836C564.794 87.4898 567.103 94.1787 567.103 102.88H568.103H569.103C569.103 93.8213 566.691 86.5902 561.752 81.3164L561.023 82ZM568.103 102.88H567.103V142H568.103H569.103V102.88H568.103ZM568.103 142V141H547.703V142V143H568.103V142ZM547.703 142H548.703V105.64H547.703H546.703V142H547.703ZM547.703 105.64H548.703C548.703 100.989 547.496 97.235 544.953 94.5168L544.223 95.2L543.492 95.8832C545.589 98.125 546.703 101.331 546.703 105.64H547.703ZM544.223 95.2L544.953 94.5168C542.414 91.8029 539.013 90.48 534.863 90.48V91.48V92.48C538.552 92.48 541.391 93.6371 543.492 95.8832L544.223 95.2ZM534.863 91.48V90.48C530.712 90.48 527.311 91.8029 524.772 94.5168L525.503 95.2L526.233 95.8832C528.334 93.6371 531.173 92.48 534.863 92.48V91.48ZM525.503 95.2L524.772 94.5168C522.229 97.235 521.023 100.989 521.023 105.64H522.023H523.023C523.023 101.331 524.136 98.125 526.233 95.8832L525.503 95.2ZM522.023 105.64H521.023V142H522.023H523.023V105.64H522.023ZM522.023 142V141H501.503V142V143H522.023V142ZM501.503 142H502.503V75.04H501.503H500.503V142H501.503ZM501.503 75.04V76.04H522.023V75.04V74.04H501.503V75.04ZM522.023 75.04H521.023V83.92H522.023H523.023V75.04H522.023ZM522.023 83.92L522.841 84.4949C524.814 81.6865 527.476 79.4744 530.853 77.8625L530.423 76.96L529.992 76.0575C526.329 77.8056 523.391 80.2335 521.204 83.3451L522.023 83.92ZM530.423 76.96L530.87 77.8544C534.235 76.1717 538.039 75.32 542.303 75.32V74.32V73.32C537.766 73.32 533.65 74.2283 529.975 76.0656L530.423 76.96ZM604.442 123.04L605.375 123.401L605.901 122.04H604.442V123.04ZM591.122 157.48V158.48H591.807L592.055 157.841L591.122 157.48ZM578.042 157.48L577.062 157.282L576.82 158.48H578.042V157.48ZM585.002 123.04V122.04H584.184L584.022 122.842L585.002 123.04ZM604.442 123.04L603.509 122.679L590.189 157.119L591.122 157.48L592.055 157.841L605.375 123.401L604.442 123.04ZM591.122 157.48V156.48H578.042V157.48V158.48H591.122V157.48ZM578.042 157.48L579.022 157.678L585.982 123.238L585.002 123.04L584.022 122.842L577.062 157.282L578.042 157.48ZM585.002 123.04V124.04H604.442V123.04V122.04H585.002V123.04Z" fill="url(#paint0_linear_2071_47)" mask="url(#path-1-outside-1_2071_47)"/>
<path d="M3.96 89.76C3.96 81.44 5.76 74.04 9.36 67.56C12.96 61 17.96 55.92 24.36 52.32C30.84 48.64 38.16 46.8 46.32 46.8C56.32 46.8 64.88 49.44 72 54.72C79.12 60 83.88 67.2 86.28 76.32H63.72C62.04 72.8 59.64 70.12 56.52 68.28C53.48 66.44 50 65.52 46.08 65.52C39.76 65.52 34.64 67.72 30.72 72.12C26.8 76.52 24.84 82.4 24.84 89.76C24.84 97.12 26.8 103 30.72 107.4C34.64 111.8 39.76 114 46.08 114C50 114 53.48 113.08 56.52 111.24C59.64 109.4 62.04 106.72 63.72 103.2H86.28C83.88 112.32 79.12 119.52 72 124.8C64.88 130 56.32 132.6 46.32 132.6C38.16 132.6 30.84 130.8 24.36 127.2C17.96 123.52 12.96 118.44 9.36 111.96C5.76 105.48 3.96 98.08 3.96 89.76ZM109.166 58.08C105.566 58.08 102.606 57.04 100.286 54.96C98.0463 52.8 96.9263 50.16 96.9263 47.04C96.9263 43.84 98.0463 41.2 100.286 39.12C102.606 36.96 105.566 35.88 109.166 35.88C112.686 35.88 115.566 36.96 117.806 39.12C120.126 41.2 121.286 43.84 121.286 47.04C121.286 50.16 120.126 52.8 117.806 54.96C115.566 57.04 112.686 58.08 109.166 58.08ZM119.366 65.04V132H98.8463V65.04H119.366ZM154.757 74.52C156.757 71.4 159.517 68.88 163.037 66.96C166.557 65.04 170.677 64.08 175.397 64.08C180.917 64.08 185.917 65.48 190.397 68.28C194.877 71.08 198.397 75.08 200.957 80.28C203.597 85.48 204.917 91.52 204.917 98.4C204.917 105.28 203.597 111.36 200.957 116.64C198.397 121.84 194.877 125.88 190.397 128.76C185.917 131.56 180.917 132.96 175.397 132.96C170.757 132.96 166.637 132 163.037 130.08C159.517 128.16 156.757 125.68 154.757 122.64V163.92H134.237V65.04H154.757V74.52ZM184.037 98.4C184.037 93.28 182.597 89.28 179.717 86.4C176.917 83.44 173.437 81.96 169.277 81.96C165.197 81.96 161.717 83.44 158.837 86.4C156.037 89.36 154.637 93.4 154.637 98.52C154.637 103.64 156.037 107.68 158.837 110.64C161.717 113.6 165.197 115.08 169.277 115.08C173.357 115.08 176.837 113.6 179.717 110.64C182.597 107.6 184.037 103.52 184.037 98.4ZM253.002 114.6V132H242.562C235.122 132 229.322 130.2 225.162 126.6C221.002 122.92 218.922 116.96 218.922 108.72V82.08H210.762V65.04H218.922V48.72H239.442V65.04H252.882V82.08H239.442V108.96C239.442 110.96 239.922 112.4 240.882 113.28C241.842 114.16 243.442 114.6 245.682 114.6H253.002ZM260.352 98.4C260.352 91.52 261.632 85.48 264.192 80.28C266.832 75.08 270.392 71.08 274.872 68.28C279.352 65.48 284.352 64.08 289.872 64.08C294.592 64.08 298.712 65.04 302.232 66.96C305.832 68.88 308.592 71.4 310.512 74.52V65.04H331.032V132H310.512V122.52C308.512 125.64 305.712 128.16 302.112 130.08C298.592 132 294.472 132.96 289.752 132.96C284.312 132.96 279.352 131.56 274.872 128.76C270.392 125.88 266.832 121.84 264.192 116.64C261.632 111.36 260.352 105.28 260.352 98.4ZM310.512 98.52C310.512 93.4 309.072 89.36 306.192 86.4C303.392 83.44 299.952 81.96 295.872 81.96C291.792 81.96 288.312 83.44 285.432 86.4C282.632 89.28 281.232 93.28 281.232 98.4C281.232 103.52 282.632 107.6 285.432 110.64C288.312 113.6 291.792 115.08 295.872 115.08C299.952 115.08 303.392 113.6 306.192 110.64C309.072 107.68 310.512 103.64 310.512 98.52ZM386.798 132L366.398 103.92V132H345.878V43.2H366.398V92.28L386.678 65.04H411.998L384.158 98.64L412.238 132H386.798ZM415.977 98.4C415.977 91.52 417.257 85.48 419.817 80.28C422.457 75.08 426.017 71.08 430.497 68.28C434.977 65.48 439.977 64.08 445.497 64.08C450.217 64.08 454.337 65.04 457.857 66.96C461.457 68.88 464.217 71.4 466.137 74.52V65.04H486.657V132H466.137V122.52C464.137 125.64 461.337 128.16 457.737 130.08C454.217 132 450.097 132.96 445.377 132.96C439.937 132.96 434.977 131.56 430.497 128.76C426.017 125.88 422.457 121.84 419.817 116.64C417.257 111.36 415.977 105.28 415.977 98.4ZM466.137 98.52C466.137 93.4 464.697 89.36 461.817 86.4C459.017 83.44 455.577 81.96 451.497 81.96C447.417 81.96 443.937 83.44 441.057 86.4C438.257 89.28 436.857 93.28 436.857 98.4C436.857 103.52 438.257 107.6 441.057 110.64C443.937 113.6 447.417 115.08 451.497 115.08C455.577 115.08 459.017 113.6 461.817 110.64C464.697 107.68 466.137 103.64 466.137 98.52ZM542.303 64.32C550.143 64.32 556.383 66.88 561.023 72C565.743 77.04 568.103 84 568.103 92.88V132H547.703V95.64C547.703 91.16 546.543 87.68 544.223 85.2C541.903 82.72 538.783 81.48 534.863 81.48C530.943 81.48 527.823 82.72 525.503 85.2C523.183 87.68 522.023 91.16 522.023 95.64V132H501.503V65.04H522.023V73.92C524.103 70.96 526.903 68.64 530.423 66.96C533.943 65.2 537.903 64.32 542.303 64.32ZM604.442 113.04L591.122 147.48H578.042L585.002 113.04H604.442Z" fill="url(#paint1_linear_2071_47)"/>
<defs>
<linearGradient id="paint0_linear_2071_47" x1="0" y1="69.5" x2="749" y2="69.5" gradientUnits="userSpaceOnUse">
<stop stop-color="#FFF4E0"/>
<stop offset="1" stop-color="#EFD9A7"/>
</linearGradient>
<linearGradient id="paint1_linear_2071_47" x1="374.5" y1="-9.37897e-08" x2="375" y2="182" gradientUnits="userSpaceOnUse">
<stop stop-color="#FFF4E0"/>
<stop offset="1" stop-color="#EFD9A7"/>
</linearGradient>
</defs>
</svg>
