<svg width="800" height="1000" viewBox="0 0 800 1000" fill="none" xmlns="http://www.w3.org/2000/svg">
<rect width="800" height="1000" rx="30" fill="url(#paint0_linear_2073_48)"/>
<path d="M0 759H800V970C800 986.569 786.569 1000 770 1000H30C13.4315 1000 0 986.569 0 970V759Z" fill="url(#paint1_linear_2073_48)"/>
<mask id="path-3-outside-1_2073_48" maskUnits="userSpaceOnUse" x="27" y="194" width="604" height="131" fill="black">
<rect fill="white" x="27" y="194" width="604" height="131"/>
<path d="M28.96 249.76C28.96 241.44 30.76 234.04 34.36 227.56C37.96 221 42.96 215.92 49.36 212.32C55.84 208.64 63.16 206.8 71.32 206.8C81.32 206.8 89.88 209.44 97 214.72C104.12 220 108.88 227.2 111.28 236.32H88.72C87.04 232.8 84.64 230.12 81.52 228.28C78.48 226.44 75 225.52 71.08 225.52C64.76 225.52 59.64 227.72 55.72 232.12C51.8 236.52 49.84 242.4 49.84 249.76C49.84 257.12 51.8 263 55.72 267.4C59.64 271.8 64.76 274 71.08 274C75 274 78.48 273.08 81.52 271.24C84.64 269.4 87.04 266.72 88.72 263.2H111.28C108.88 272.32 104.12 279.52 97 284.8C89.88 290 81.32 292.6 71.32 292.6C63.16 292.6 55.84 290.8 49.36 287.2C42.96 283.52 37.96 278.44 34.36 271.96C30.76 265.48 28.96 258.08 28.96 249.76ZM134.166 218.08C130.566 218.08 127.606 217.04 125.286 214.96C123.046 212.8 121.926 210.16 121.926 207.04C121.926 203.84 123.046 201.2 125.286 199.12C127.606 196.96 130.566 195.88 134.166 195.88C137.686 195.88 140.566 196.96 142.806 199.12C145.126 201.2 146.286 203.84 146.286 207.04C146.286 210.16 145.126 212.8 142.806 214.96C140.566 217.04 137.686 218.08 134.166 218.08ZM144.366 225.04V292H123.846V225.04H144.366ZM179.757 234.52C181.757 231.4 184.517 228.88 188.037 226.96C191.557 225.04 195.677 224.08 200.397 224.08C205.917 224.08 210.917 225.48 215.397 228.28C219.877 231.08 223.397 235.08 225.957 240.28C228.597 245.48 229.917 251.52 229.917 258.4C229.917 265.28 228.597 271.36 225.957 276.64C223.397 281.84 219.877 285.88 215.397 288.76C210.917 291.56 205.917 292.96 200.397 292.96C195.757 292.96 191.637 292 188.037 290.08C184.517 288.16 181.757 285.68 179.757 282.64V323.92H159.237V225.04H179.757V234.52ZM209.037 258.4C209.037 253.28 207.597 249.28 204.717 246.4C201.917 243.44 198.437 241.96 194.277 241.96C190.197 241.96 186.717 243.44 183.837 246.4C181.037 249.36 179.637 253.4 179.637 258.52C179.637 263.64 181.037 267.68 183.837 270.64C186.717 273.6 190.197 275.08 194.277 275.08C198.357 275.08 201.837 273.6 204.717 270.64C207.597 267.6 209.037 263.52 209.037 258.4ZM278.002 274.6V292H267.562C260.122 292 254.322 290.2 250.162 286.6C246.002 282.92 243.922 276.96 243.922 268.72V242.08H235.762V225.04H243.922V208.72H264.442V225.04H277.882V242.08H264.442V268.96C264.442 270.96 264.922 272.4 265.882 273.28C266.842 274.16 268.442 274.6 270.682 274.6H278.002ZM285.352 258.4C285.352 251.52 286.632 245.48 289.192 240.28C291.832 235.08 295.392 231.08 299.872 228.28C304.352 225.48 309.352 224.08 314.872 224.08C319.592 224.08 323.712 225.04 327.232 226.96C330.832 228.88 333.592 231.4 335.512 234.52V225.04H356.032V292H335.512V282.52C333.512 285.64 330.712 288.16 327.112 290.08C323.592 292 319.472 292.96 314.752 292.96C309.312 292.96 304.352 291.56 299.872 288.76C295.392 285.88 291.832 281.84 289.192 276.64C286.632 271.36 285.352 265.28 285.352 258.4ZM335.512 258.52C335.512 253.4 334.072 249.36 331.192 246.4C328.392 243.44 324.952 241.96 320.872 241.96C316.792 241.96 313.312 243.44 310.432 246.4C307.632 249.28 306.232 253.28 306.232 258.4C306.232 263.52 307.632 267.6 310.432 270.64C313.312 273.6 316.792 275.08 320.872 275.08C324.952 275.08 328.392 273.6 331.192 270.64C334.072 267.68 335.512 263.64 335.512 258.52ZM411.798 292L391.398 263.92V292H370.878V203.2H391.398V252.28L411.678 225.04H436.998L409.158 258.64L437.238 292H411.798ZM440.977 258.4C440.977 251.52 442.257 245.48 444.817 240.28C447.457 235.08 451.017 231.08 455.497 228.28C459.977 225.48 464.977 224.08 470.497 224.08C475.217 224.08 479.337 225.04 482.857 226.96C486.457 228.88 489.217 231.4 491.137 234.52V225.04H511.657V292H491.137V282.52C489.137 285.64 486.337 288.16 482.737 290.08C479.217 292 475.097 292.96 470.377 292.96C464.937 292.96 459.977 291.56 455.497 288.76C451.017 285.88 447.457 281.84 444.817 276.64C442.257 271.36 440.977 265.28 440.977 258.4ZM491.137 258.52C491.137 253.4 489.697 249.36 486.817 246.4C484.017 243.44 480.577 241.96 476.497 241.96C472.417 241.96 468.937 243.44 466.057 246.4C463.257 249.28 461.857 253.28 461.857 258.4C461.857 263.52 463.257 267.6 466.057 270.64C468.937 273.6 472.417 275.08 476.497 275.08C480.577 275.08 484.017 273.6 486.817 270.64C489.697 267.68 491.137 263.64 491.137 258.52ZM567.303 224.32C575.143 224.32 581.383 226.88 586.023 232C590.743 237.04 593.103 244 593.103 252.88V292H572.703V255.64C572.703 251.16 571.543 247.68 569.223 245.2C566.903 242.72 563.783 241.48 559.863 241.48C555.943 241.48 552.823 242.72 550.503 245.2C548.183 247.68 547.023 251.16 547.023 255.64V292H526.503V225.04H547.023V233.92C549.103 230.96 551.903 228.64 555.423 226.96C558.943 225.2 562.903 224.32 567.303 224.32ZM629.442 273.04L616.122 307.48H603.042L610.002 273.04H629.442Z"/>
</mask>
<path d="M34.36 227.56L35.2342 228.046L35.2367 228.041L34.36 227.56ZM49.36 212.32L49.8503 213.192L49.8538 213.19L49.36 212.32ZM97 214.72L97.5957 213.917L97.5957 213.917L97 214.72ZM111.28 236.32V237.32H112.577L112.247 236.066L111.28 236.32ZM88.72 236.32L87.8175 236.751L88.0892 237.32H88.72V236.32ZM81.52 228.28L81.0022 229.136L81.012 229.141L81.52 228.28ZM55.72 232.12L56.4667 232.785L56.4667 232.785L55.72 232.12ZM81.52 271.24L81.012 270.379L81.0022 270.384L81.52 271.24ZM88.72 263.2V262.2H88.0892L87.8175 262.769L88.72 263.2ZM111.28 263.2L112.247 263.454L112.577 262.2H111.28V263.2ZM97 284.8L97.5898 285.608L97.5957 285.603L97 284.8ZM49.36 287.2L48.8615 288.067L48.8679 288.071L48.8744 288.074L49.36 287.2ZM34.36 271.96L35.2342 271.474L35.2342 271.474L34.36 271.96ZM28.96 249.76H29.96C29.96 241.589 31.7264 234.36 35.2342 228.046L34.36 227.56L33.4858 227.074C29.7936 233.72 27.96 241.291 27.96 249.76H28.96ZM34.36 227.56L35.2367 228.041C38.7486 221.641 43.6162 216.698 49.8503 213.192L49.36 212.32L48.8697 211.448C42.3038 215.142 37.1714 220.359 33.4833 227.079L34.36 227.56ZM49.36 212.32L49.8538 213.19C56.1692 209.603 63.3162 207.8 71.32 207.8V206.8V205.8C63.0038 205.8 55.5108 207.677 48.8662 211.45L49.36 212.32ZM71.32 206.8V207.8C81.1342 207.8 89.4784 210.387 96.4043 215.523L97 214.72L97.5957 213.917C90.2816 208.493 81.5058 205.8 71.32 205.8V206.8ZM97 214.72L96.4043 215.523C103.33 220.659 107.967 227.659 110.313 236.574L111.28 236.32L112.247 236.066C109.793 226.741 104.91 219.341 97.5957 213.917L97 214.72ZM111.28 236.32V235.32H88.72V236.32V237.32H111.28V236.32ZM88.72 236.32L89.6225 235.889C87.8637 232.204 85.3327 229.368 82.028 227.419L81.52 228.28L81.012 229.141C83.9473 230.872 86.2163 233.396 87.8175 236.751L88.72 236.32ZM81.52 228.28L82.0378 227.424C78.8258 225.48 75.1631 224.52 71.08 224.52V225.52V226.52C74.8369 226.52 78.1342 227.4 81.0022 229.135L81.52 228.28ZM71.08 225.52V224.52C64.4981 224.52 59.0981 226.825 54.9733 231.455L55.72 232.12L56.4667 232.785C60.1819 228.615 65.0219 226.52 71.08 226.52V225.52ZM55.72 232.12L54.9733 231.455C50.8524 236.08 48.84 242.218 48.84 249.76H49.84H50.84C50.84 242.582 52.7476 236.96 56.4667 232.785L55.72 232.12ZM49.84 249.76H48.84C48.84 257.302 50.8524 263.44 54.9733 268.065L55.72 267.4L56.4667 266.735C52.7476 262.56 50.84 256.938 50.84 249.76H49.84ZM55.72 267.4L54.9733 268.065C59.0981 272.695 64.4981 275 71.08 275V274V273C65.0219 273 60.1819 270.905 56.4667 266.735L55.72 267.4ZM71.08 274V275C75.1631 275 78.8258 274.04 82.0378 272.095L81.52 271.24L81.0022 270.384C78.1342 272.12 74.8369 273 71.08 273V274ZM81.52 271.24L82.028 272.101C85.3327 270.152 87.8637 267.316 89.6225 263.631L88.72 263.2L87.8175 262.769C86.2163 266.124 83.9473 268.648 81.012 270.379L81.52 271.24ZM88.72 263.2V264.2H111.28V263.2V262.2H88.72V263.2ZM111.28 263.2L110.313 262.946C107.967 271.861 103.33 278.861 96.4043 283.997L97 284.8L97.5957 285.603C104.91 280.179 109.793 272.779 112.247 263.454L111.28 263.2ZM97 284.8L96.4102 283.992C89.4839 289.051 81.1377 291.6 71.32 291.6V292.6V293.6C81.5024 293.6 90.2761 290.949 97.5898 285.608L97 284.8ZM71.32 292.6V291.6C63.3124 291.6 56.1625 289.835 49.8456 286.326L49.36 287.2L48.8744 288.074C55.5175 291.765 63.0076 293.6 71.32 293.6V292.6ZM49.36 287.2L49.8585 286.333C43.6167 282.744 38.7463 277.796 35.2342 271.474L34.36 271.96L33.4858 272.446C37.1737 279.084 42.3033 284.296 48.8615 288.067L49.36 287.2ZM34.36 271.96L35.2342 271.474C31.7264 265.16 29.96 257.931 29.96 249.76H28.96H27.96C27.96 258.229 29.7936 265.8 33.4858 272.446L34.36 271.96ZM125.286 214.96L124.592 215.68L124.605 215.692L124.619 215.705L125.286 214.96ZM125.286 199.12L125.967 199.853L125.968 199.852L125.286 199.12ZM142.806 199.12L142.112 199.84L142.125 199.852L142.139 199.865L142.806 199.12ZM142.806 214.96L143.487 215.693L143.488 215.692L142.806 214.96ZM144.366 225.04H145.366V224.04H144.366V225.04ZM144.366 292V293H145.366V292H144.366ZM123.846 292H122.846V293H123.846V292ZM123.846 225.04V224.04H122.846V225.04H123.846ZM134.166 218.08V217.08C130.772 217.08 128.062 216.106 125.954 214.215L125.286 214.96L124.619 215.705C127.15 217.974 130.361 219.08 134.166 219.08V218.08ZM125.286 214.96L125.98 214.24C123.936 212.269 122.926 209.889 122.926 207.04H121.926H120.926C120.926 210.431 122.156 213.331 124.592 215.68L125.286 214.96ZM121.926 207.04H122.926C122.926 204.103 123.941 201.734 125.967 199.853L125.286 199.12L124.606 198.387C122.152 200.666 120.926 203.577 120.926 207.04H121.926ZM125.286 199.12L125.968 199.852C128.077 197.888 130.782 196.88 134.166 196.88V195.88V194.88C130.35 194.88 127.135 196.032 124.605 198.388L125.286 199.12ZM134.166 195.88V196.88C137.464 196.88 140.083 197.884 142.112 199.84L142.806 199.12L143.5 198.4C141.049 196.036 137.908 194.88 134.166 194.88V195.88ZM142.806 199.12L142.139 199.865C144.241 201.749 145.286 204.115 145.286 207.04H146.286H147.286C147.286 203.565 146.012 200.651 143.474 198.375L142.806 199.12ZM146.286 207.04H145.286C145.286 209.877 144.245 212.254 142.125 214.228L142.806 214.96L143.488 215.692C146.007 213.346 147.286 210.443 147.286 207.04H146.286ZM142.806 214.96L142.126 214.227C140.099 216.109 137.475 217.08 134.166 217.08V218.08V219.08C137.898 219.08 141.034 217.971 143.487 215.693L142.806 214.96ZM144.366 225.04H143.366V292H144.366H145.366V225.04H144.366ZM144.366 292V291H123.846V292V293H144.366V292ZM123.846 292H124.846V225.04H123.846H122.846V292H123.846ZM123.846 225.04V226.04H144.366V225.04V224.04H123.846V225.04ZM179.757 234.52H178.757V237.933L180.599 235.06L179.757 234.52ZM188.037 226.96L187.558 226.082L187.558 226.082L188.037 226.96ZM215.397 228.28L214.867 229.128L214.867 229.128L215.397 228.28ZM225.957 240.28L225.06 240.722L225.065 240.733L225.957 240.28ZM225.957 276.64L225.062 276.193L225.06 276.198L225.957 276.64ZM215.397 288.76L215.927 289.608L215.938 289.601L215.397 288.76ZM188.037 290.08L187.558 290.958L187.566 290.962L188.037 290.08ZM179.757 282.64L180.592 282.09L178.757 279.301V282.64H179.757ZM179.757 323.92V324.92H180.757V323.92H179.757ZM159.237 323.92H158.237V324.92H159.237V323.92ZM159.237 225.04V224.04H158.237V225.04H159.237ZM179.757 225.04H180.757V224.04H179.757V225.04ZM204.717 246.4L203.99 247.087L204 247.097L204.01 247.107L204.717 246.4ZM183.837 246.4L183.12 245.703L183.11 245.713L183.837 246.4ZM183.837 270.64L183.11 271.327L183.12 271.337L183.837 270.64ZM204.717 270.64L205.434 271.337L205.443 271.328L204.717 270.64ZM179.757 234.52L180.599 235.06C182.501 232.093 185.131 229.684 188.516 227.838L188.037 226.96L187.558 226.082C183.903 228.076 181.013 230.707 178.915 233.98L179.757 234.52ZM188.037 226.96L188.516 227.838C191.865 226.011 195.814 225.08 200.397 225.08V224.08V223.08C195.539 223.08 191.249 224.069 187.558 226.082L188.037 226.96ZM200.397 224.08V225.08C205.738 225.08 210.553 226.432 214.867 229.128L215.397 228.28L215.927 227.432C211.281 224.528 206.095 223.08 200.397 223.08V224.08ZM215.397 228.28L214.867 229.128C219.174 231.82 222.574 235.672 225.06 240.722L225.957 240.28L226.854 239.838C224.22 234.488 220.58 230.34 215.927 227.432L215.397 228.28ZM225.957 240.28L225.065 240.733C227.622 245.769 228.917 251.649 228.917 258.4H229.917H230.917C230.917 251.391 229.572 245.191 226.849 239.827L225.957 240.28ZM229.917 258.4H228.917C228.917 265.15 227.622 271.073 225.062 276.193L225.957 276.64L226.851 277.087C229.571 271.647 230.917 265.41 230.917 258.4H229.917ZM225.957 276.64L225.06 276.198C222.573 281.25 219.17 285.146 214.856 287.919L215.397 288.76L215.938 289.601C220.584 286.614 224.221 282.43 226.854 277.082L225.957 276.64ZM215.397 288.76L214.867 287.912C210.553 290.608 205.738 291.96 200.397 291.96V292.96V293.96C206.095 293.96 211.281 292.512 215.927 289.608L215.397 288.76ZM200.397 292.96V291.96C195.898 291.96 191.944 291.03 188.507 289.198L188.037 290.08L187.566 290.962C191.33 292.97 195.616 293.96 200.397 293.96V292.96ZM188.037 290.08L188.516 289.202C185.125 287.352 182.493 284.98 180.592 282.09L179.757 282.64L178.921 283.19C181.021 286.38 183.909 288.968 187.558 290.958L188.037 290.08ZM179.757 282.64H178.757V323.92H179.757H180.757V282.64H179.757ZM179.757 323.92V322.92H159.237V323.92V324.92H179.757V323.92ZM159.237 323.92H160.237V225.04H159.237H158.237V323.92H159.237ZM159.237 225.04V226.04H179.757V225.04V224.04H159.237V225.04ZM179.757 225.04H178.757V234.52H179.757H180.757V225.04H179.757ZM209.037 258.4H210.037C210.037 253.087 208.537 248.806 205.424 245.693L204.717 246.4L204.01 247.107C206.657 249.754 208.037 253.473 208.037 258.4H209.037ZM204.717 246.4L205.443 245.713C202.45 242.548 198.705 240.96 194.277 240.96V241.96V242.96C198.169 242.96 201.384 244.332 203.99 247.087L204.717 246.4ZM194.277 241.96V240.96C189.923 240.96 186.186 242.552 183.12 245.703L183.837 246.4L184.554 247.097C187.248 244.328 190.471 242.96 194.277 242.96V241.96ZM183.837 246.4L183.11 245.713C180.093 248.903 178.637 253.213 178.637 258.52H179.637H180.637C180.637 253.587 181.981 249.817 184.563 247.087L183.837 246.4ZM179.637 258.52H178.637C178.637 263.827 180.093 268.137 183.11 271.327L183.837 270.64L184.563 269.953C181.981 267.223 180.637 263.453 180.637 258.52H179.637ZM183.837 270.64L183.12 271.337C186.186 274.488 189.923 276.08 194.277 276.08V275.08V274.08C190.471 274.08 187.248 272.712 184.554 269.943L183.837 270.64ZM194.277 275.08V276.08C198.631 276.08 202.368 274.488 205.434 271.337L204.717 270.64L204 269.943C201.306 272.712 198.083 274.08 194.277 274.08V275.08ZM204.717 270.64L205.443 271.328C208.536 268.063 210.037 263.716 210.037 258.4H209.037H208.037C208.037 263.324 206.658 267.137 203.991 269.952L204.717 270.64ZM278.002 274.6H279.002V273.6H278.002V274.6ZM278.002 292V293H279.002V292H278.002ZM250.162 286.6L249.5 287.349L249.508 287.356L250.162 286.6ZM243.922 242.08H244.922V241.08H243.922V242.08ZM235.762 242.08H234.762V243.08H235.762V242.08ZM235.762 225.04V224.04H234.762V225.04H235.762ZM243.922 225.04V226.04H244.922V225.04H243.922ZM243.922 208.72V207.72H242.922V208.72H243.922ZM264.442 208.72H265.442V207.72H264.442V208.72ZM264.442 225.04H263.442V226.04H264.442V225.04ZM277.882 225.04H278.882V224.04H277.882V225.04ZM277.882 242.08V243.08H278.882V242.08H277.882ZM264.442 242.08V241.08H263.442V242.08H264.442ZM265.882 273.28L265.206 274.017L265.206 274.017L265.882 273.28ZM278.002 274.6H277.002V292H278.002H279.002V274.6H278.002ZM278.002 292V291H267.562V292V293H278.002V292ZM267.562 292V291C260.277 291 254.739 289.239 250.817 285.844L250.162 286.6L249.508 287.356C253.905 291.161 259.967 293 267.562 293V292ZM250.162 286.6L250.825 285.851C246.966 282.437 244.922 276.814 244.922 268.72H243.922H242.922C242.922 277.106 245.039 283.403 249.5 287.349L250.162 286.6ZM243.922 268.72H244.922V242.08H243.922H242.922V268.72H243.922ZM243.922 242.08V241.08H235.762V242.08V243.08H243.922V242.08ZM235.762 242.08H236.762V225.04H235.762H234.762V242.08H235.762ZM235.762 225.04V226.04H243.922V225.04V224.04H235.762V225.04ZM243.922 225.04H244.922V208.72H243.922H242.922V225.04H243.922ZM243.922 208.72V209.72H264.442V208.72V207.72H243.922V208.72ZM264.442 208.72H263.442V225.04H264.442H265.442V208.72H264.442ZM264.442 225.04V226.04H277.882V225.04V224.04H264.442V225.04ZM277.882 225.04H276.882V242.08H277.882H278.882V225.04H277.882ZM277.882 242.08V241.08H264.442V242.08V243.08H277.882V242.08ZM264.442 242.08H263.442V268.96H264.442H265.442V242.08H264.442ZM264.442 268.96H263.442C263.442 271.091 263.951 272.866 265.206 274.017L265.882 273.28L266.558 272.543C265.893 271.934 265.442 270.829 265.442 268.96H264.442ZM265.882 273.28L265.206 274.017C266.445 275.152 268.358 275.6 270.682 275.6V274.6V273.6C268.526 273.6 267.24 273.168 266.558 272.543L265.882 273.28ZM270.682 274.6V275.6H278.002V274.6V273.6H270.682V274.6ZM289.192 240.28L288.3 239.827L288.295 239.838L289.192 240.28ZM299.872 228.28L300.402 229.128L300.402 229.128L299.872 228.28ZM327.232 226.96L326.753 227.838L326.762 227.842L327.232 226.96ZM335.512 234.52L334.661 235.044L336.512 238.053V234.52H335.512ZM335.512 225.04V224.04H334.512V225.04H335.512ZM356.032 225.04H357.032V224.04H356.032V225.04ZM356.032 292V293H357.032V292H356.032ZM335.512 292H334.512V293H335.512V292ZM335.512 282.52H336.512V279.107L334.67 281.98L335.512 282.52ZM327.112 290.08L326.642 289.198L326.633 289.202L327.112 290.08ZM299.872 288.76L299.331 289.601L299.342 289.608L299.872 288.76ZM289.192 276.64L288.292 277.076L288.296 277.085L288.301 277.093L289.192 276.64ZM331.192 246.4L330.466 247.087L330.475 247.097L331.192 246.4ZM310.432 246.4L309.715 245.703L309.715 245.703L310.432 246.4ZM310.432 270.64L309.697 271.317L309.706 271.328L309.715 271.337L310.432 270.64ZM331.192 270.64L330.475 269.943L330.466 269.953L331.192 270.64ZM285.352 258.4H286.352C286.352 251.645 287.609 245.761 290.089 240.722L289.192 240.28L288.295 239.838C285.656 245.199 284.352 251.395 284.352 258.4H285.352ZM289.192 240.28L290.084 240.733C292.65 235.678 296.092 231.822 300.402 229.128L299.872 228.28L299.342 227.432C294.692 230.338 291.014 234.482 288.301 239.827L289.192 240.28ZM299.872 228.28L300.402 229.128C304.716 226.432 309.531 225.08 314.872 225.08V224.08V223.08C309.174 223.08 303.988 224.528 299.342 227.432L299.872 228.28ZM314.872 224.08V225.08C319.455 225.08 323.404 226.011 326.753 227.838L327.232 226.96L327.711 226.082C324.02 224.069 319.73 223.08 314.872 223.08V224.08ZM327.232 226.96L326.762 227.842C330.223 229.689 332.844 232.092 334.661 235.044L335.512 234.52L336.364 233.996C334.341 230.708 331.441 228.071 327.703 226.078L327.232 226.96ZM335.512 234.52H336.512V225.04H335.512H334.512V234.52H335.512ZM335.512 225.04V226.04H356.032V225.04V224.04H335.512V225.04ZM356.032 225.04H355.032V292H356.032H357.032V225.04H356.032ZM356.032 292V291H335.512V292V293H356.032V292ZM335.512 292H336.512V282.52H335.512H334.512V292H335.512ZM335.512 282.52L334.67 281.98C332.772 284.942 330.106 287.35 326.642 289.198L327.112 290.08L327.583 290.962C331.318 288.97 334.253 286.338 336.354 283.06L335.512 282.52ZM327.112 290.08L326.633 289.202C323.284 291.029 319.335 291.96 314.752 291.96V292.96V293.96C319.61 293.96 323.9 292.971 327.591 290.958L327.112 290.08ZM314.752 292.96V291.96C309.494 291.96 304.718 290.61 300.402 287.912L299.872 288.76L299.342 289.608C303.986 292.51 309.131 293.96 314.752 293.96V292.96ZM299.872 288.76L300.413 287.919C296.096 285.144 292.651 281.244 290.084 276.187L289.192 276.64L288.301 277.093C291.013 282.436 294.688 286.616 299.331 289.601L299.872 288.76ZM289.192 276.64L290.092 276.204C287.608 271.081 286.352 265.155 286.352 258.4H285.352H284.352C284.352 265.405 285.656 271.639 288.292 277.076L289.192 276.64ZM335.512 258.52H336.512C336.512 253.205 335.012 248.892 331.909 245.703L331.192 246.4L330.475 247.097C333.133 249.828 334.512 253.595 334.512 258.52H335.512ZM331.192 246.4L331.919 245.713C328.929 242.553 325.227 240.96 320.872 240.96V241.96V242.96C324.678 242.96 327.855 244.327 330.466 247.087L331.192 246.4ZM320.872 241.96V240.96C316.519 240.96 312.781 242.552 309.715 245.703L310.432 246.4L311.149 247.097C313.843 244.328 317.066 242.96 320.872 242.96V241.96ZM310.432 246.4L309.715 245.703C306.688 248.817 305.232 253.094 305.232 258.4H306.232H307.232C307.232 253.466 308.577 249.743 311.149 247.097L310.432 246.4ZM306.232 258.4H305.232C305.232 263.708 306.688 268.051 309.697 271.317L310.432 270.64L311.168 269.963C308.576 267.149 307.232 263.332 307.232 258.4H306.232ZM310.432 270.64L309.715 271.337C312.781 274.488 316.519 276.08 320.872 276.08V275.08V274.08C317.066 274.08 313.843 272.712 311.149 269.943L310.432 270.64ZM320.872 275.08V276.08C325.227 276.08 328.929 274.487 331.919 271.327L331.192 270.64L330.466 269.953C327.855 272.713 324.678 274.08 320.872 274.08V275.08ZM331.192 270.64L331.909 271.337C335.012 268.148 336.512 263.835 336.512 258.52H335.512H334.512C334.512 263.445 333.133 267.212 330.475 269.943L331.192 270.64ZM411.798 292L410.988 292.588L411.288 293H411.798V292ZM391.398 263.92L392.207 263.332L390.398 260.842V263.92H391.398ZM391.398 292V293H392.398V292H391.398ZM370.878 292H369.878V293H370.878V292ZM370.878 203.2V202.2H369.878V203.2H370.878ZM391.398 203.2H392.398V202.2H391.398V203.2ZM391.398 252.28H390.398V255.298L392.2 252.877L391.398 252.28ZM411.678 225.04V224.04H411.175L410.875 224.443L411.678 225.04ZM436.998 225.04L437.768 225.678L439.125 224.04H436.998V225.04ZM409.158 258.64L408.387 258.002L407.855 258.645L408.392 259.284L409.158 258.64ZM437.238 292V293H439.386L438.003 291.356L437.238 292ZM411.798 292L412.607 291.412L392.207 263.332L391.398 263.92L390.588 264.508L410.988 292.588L411.798 292ZM391.398 263.92H390.398V292H391.398H392.398V263.92H391.398ZM391.398 292V291H370.878V292V293H391.398V292ZM370.878 292H371.878V203.2H370.878H369.878V292H370.878ZM370.878 203.2V204.2H391.398V203.2V202.2H370.878V203.2ZM391.398 203.2H390.398V252.28H391.398H392.398V203.2H391.398ZM391.398 252.28L392.2 252.877L412.48 225.637L411.678 225.04L410.875 224.443L390.595 251.683L391.398 252.28ZM411.678 225.04V226.04H436.998V225.04V224.04H411.678V225.04ZM436.998 225.04L436.227 224.402L408.387 258.002L409.158 258.64L409.928 259.278L437.768 225.678L436.998 225.04ZM409.158 258.64L408.392 259.284L436.472 292.644L437.238 292L438.003 291.356L409.923 257.996L409.158 258.64ZM437.238 292V291H411.798V292V293H437.238V292ZM444.817 240.28L443.925 239.827L443.92 239.838L444.817 240.28ZM455.497 228.28L456.027 229.128L456.027 229.128L455.497 228.28ZM482.857 226.96L482.378 227.838L482.387 227.842L482.857 226.96ZM491.137 234.52L490.286 235.044L492.137 238.053V234.52H491.137ZM491.137 225.04V224.04H490.137V225.04H491.137ZM511.657 225.04H512.657V224.04H511.657V225.04ZM511.657 292V293H512.657V292H511.657ZM491.137 292H490.137V293H491.137V292ZM491.137 282.52H492.137V279.107L490.295 281.98L491.137 282.52ZM482.737 290.08L482.267 289.198L482.258 289.202L482.737 290.08ZM455.497 288.76L454.956 289.601L454.967 289.608L455.497 288.76ZM444.817 276.64L443.917 277.076L443.921 277.085L443.926 277.093L444.817 276.64ZM486.817 246.4L486.091 247.087L486.1 247.097L486.817 246.4ZM466.057 246.4L465.34 245.703L465.34 245.703L466.057 246.4ZM466.057 270.64L465.322 271.317L465.331 271.328L465.34 271.337L466.057 270.64ZM486.817 270.64L486.1 269.943L486.091 269.953L486.817 270.64ZM440.977 258.4H441.977C441.977 251.645 443.234 245.761 445.714 240.722L444.817 240.28L443.92 239.838C441.281 245.199 439.977 251.395 439.977 258.4H440.977ZM444.817 240.28L445.709 240.733C448.275 235.678 451.717 231.822 456.027 229.128L455.497 228.28L454.967 227.432C450.317 230.338 446.639 234.482 443.926 239.827L444.817 240.28ZM455.497 228.28L456.027 229.128C460.341 226.432 465.156 225.08 470.497 225.08V224.08V223.08C464.799 223.08 459.613 224.528 454.967 227.432L455.497 228.28ZM470.497 224.08V225.08C475.08 225.08 479.029 226.011 482.378 227.838L482.857 226.96L483.336 226.082C479.645 224.069 475.355 223.08 470.497 223.08V224.08ZM482.857 226.96L482.387 227.842C485.848 229.689 488.469 232.092 490.286 235.044L491.137 234.52L491.989 233.996C489.966 230.708 487.066 228.071 483.328 226.078L482.857 226.96ZM491.137 234.52H492.137V225.04H491.137H490.137V234.52H491.137ZM491.137 225.04V226.04H511.657V225.04V224.04H491.137V225.04ZM511.657 225.04H510.657V292H511.657H512.657V225.04H511.657ZM511.657 292V291H491.137V292V293H511.657V292ZM491.137 292H492.137V282.52H491.137H490.137V292H491.137ZM491.137 282.52L490.295 281.98C488.397 284.942 485.731 287.35 482.267 289.198L482.737 290.08L483.208 290.962C486.943 288.97 489.878 286.338 491.979 283.06L491.137 282.52ZM482.737 290.08L482.258 289.202C478.909 291.029 474.96 291.96 470.377 291.96V292.96V293.96C475.235 293.96 479.525 292.971 483.216 290.958L482.737 290.08ZM470.377 292.96V291.96C465.119 291.96 460.343 290.61 456.027 287.912L455.497 288.76L454.967 289.608C459.611 292.51 464.756 293.96 470.377 293.96V292.96ZM455.497 288.76L456.038 287.919C451.721 285.144 448.276 281.244 445.709 276.187L444.817 276.64L443.926 277.093C446.638 282.436 450.313 286.616 454.956 289.601L455.497 288.76ZM444.817 276.64L445.717 276.204C443.233 271.081 441.977 265.155 441.977 258.4H440.977H439.977C439.977 265.405 441.281 271.639 443.917 277.076L444.817 276.64ZM491.137 258.52H492.137C492.137 253.205 490.637 248.892 487.534 245.703L486.817 246.4L486.1 247.097C488.758 249.828 490.137 253.595 490.137 258.52H491.137ZM486.817 246.4L487.544 245.713C484.554 242.553 480.852 240.96 476.497 240.96V241.96V242.96C480.303 242.96 483.48 244.327 486.091 247.087L486.817 246.4ZM476.497 241.96V240.96C472.144 240.96 468.406 242.552 465.34 245.703L466.057 246.4L466.774 247.097C469.468 244.328 472.691 242.96 476.497 242.96V241.96ZM466.057 246.4L465.34 245.703C462.313 248.817 460.857 253.094 460.857 258.4H461.857H462.857C462.857 253.466 464.202 249.743 466.774 247.097L466.057 246.4ZM461.857 258.4H460.857C460.857 263.708 462.313 268.051 465.322 271.317L466.057 270.64L466.793 269.963C464.201 267.149 462.857 263.332 462.857 258.4H461.857ZM466.057 270.64L465.34 271.337C468.406 274.488 472.144 276.08 476.497 276.08V275.08V274.08C472.691 274.08 469.468 272.712 466.774 269.943L466.057 270.64ZM476.497 275.08V276.08C480.852 276.08 484.554 274.487 487.544 271.327L486.817 270.64L486.091 269.953C483.48 272.713 480.303 274.08 476.497 274.08V275.08ZM486.817 270.64L487.534 271.337C490.637 268.148 492.137 263.835 492.137 258.52H491.137H490.137C490.137 263.445 488.758 267.212 486.1 269.943L486.817 270.64ZM586.023 232L585.282 232.672L585.287 232.678L585.293 232.684L586.023 232ZM593.103 292V293H594.103V292H593.103ZM572.703 292H571.703V293H572.703V292ZM569.223 245.2L568.492 245.883L568.492 245.883L569.223 245.2ZM550.503 245.2L551.233 245.883L551.233 245.883L550.503 245.2ZM547.023 292V293H548.023V292H547.023ZM526.503 292H525.503V293H526.503V292ZM526.503 225.04V224.04H525.503V225.04H526.503ZM547.023 225.04H548.023V224.04H547.023V225.04ZM547.023 233.92H546.023V237.082L547.841 234.495L547.023 233.92ZM555.423 226.96L555.853 227.862L555.862 227.859L555.87 227.854L555.423 226.96ZM567.303 224.32V225.32C574.902 225.32 580.858 227.79 585.282 232.672L586.023 232L586.763 231.328C581.907 225.97 575.383 223.32 567.303 223.32V224.32ZM586.023 232L585.293 232.684C589.794 237.49 592.103 244.179 592.103 252.88H593.103H594.103C594.103 243.821 591.691 236.59 586.752 231.316L586.023 232ZM593.103 252.88H592.103V292H593.103H594.103V252.88H593.103ZM593.103 292V291H572.703V292V293H593.103V292ZM572.703 292H573.703V255.64H572.703H571.703V292H572.703ZM572.703 255.64H573.703C573.703 250.989 572.496 247.235 569.953 244.517L569.223 245.2L568.492 245.883C570.589 248.125 571.703 251.331 571.703 255.64H572.703ZM569.223 245.2L569.953 244.517C567.414 241.803 564.013 240.48 559.863 240.48V241.48V242.48C563.552 242.48 566.391 243.637 568.492 245.883L569.223 245.2ZM559.863 241.48V240.48C555.712 240.48 552.311 241.803 549.772 244.517L550.503 245.2L551.233 245.883C553.334 243.637 556.173 242.48 559.863 242.48V241.48ZM550.503 245.2L549.772 244.517C547.229 247.235 546.023 250.989 546.023 255.64H547.023H548.023C548.023 251.331 549.136 248.125 551.233 245.883L550.503 245.2ZM547.023 255.64H546.023V292H547.023H548.023V255.64H547.023ZM547.023 292V291H526.503V292V293H547.023V292ZM526.503 292H527.503V225.04H526.503H525.503V292H526.503ZM526.503 225.04V226.04H547.023V225.04V224.04H526.503V225.04ZM547.023 225.04H546.023V233.92H547.023H548.023V225.04H547.023ZM547.023 233.92L547.841 234.495C549.814 231.687 552.476 229.474 555.853 227.862L555.423 226.96L554.992 226.058C551.329 227.806 548.391 230.233 546.204 233.345L547.023 233.92ZM555.423 226.96L555.87 227.854C559.235 226.172 563.039 225.32 567.303 225.32V224.32V223.32C562.766 223.32 558.65 224.228 554.975 226.066L555.423 226.96ZM629.442 273.04L630.375 273.401L630.901 272.04H629.442V273.04ZM616.122 307.48V308.48H616.807L617.055 307.841L616.122 307.48ZM603.042 307.48L602.062 307.282L601.82 308.48H603.042V307.48ZM610.002 273.04V272.04H609.184L609.022 272.842L610.002 273.04ZM629.442 273.04L628.509 272.679L615.189 307.119L616.122 307.48L617.055 307.841L630.375 273.401L629.442 273.04ZM616.122 307.48V306.48H603.042V307.48V308.48H616.122V307.48ZM603.042 307.48L604.022 307.678L610.982 273.238L610.002 273.04L609.022 272.842L602.062 307.282L603.042 307.48ZM610.002 273.04V274.04H629.442V273.04V272.04H610.002V273.04Z" fill="url(#paint2_linear_2073_48)" mask="url(#path-3-outside-1_2073_48)"/>
<mask id="path-5-outside-2_2073_48" maskUnits="userSpaceOnUse" x="180" y="333" width="591" height="131" fill="black">
<rect fill="white" x="180" y="333" width="591" height="131"/>
<path d="M239.974 416.12H208.534L203.494 431H182.014L212.494 346.76H236.254L266.734 431H245.014L239.974 416.12ZM234.694 400.28L224.254 369.44L213.934 400.28H234.694ZM296.53 375.2C298.93 371.52 301.93 368.64 305.53 366.56C309.13 364.4 313.13 363.32 317.53 363.32V385.04H311.89C306.77 385.04 302.93 386.16 300.37 388.4C297.81 390.56 296.53 394.4 296.53 399.92V431H276.01V364.04H296.53V375.2ZM354.578 431.96C348.738 431.96 343.538 430.96 338.978 428.96C334.418 426.96 330.818 424.24 328.178 420.8C325.538 417.28 324.058 413.36 323.738 409.04H344.018C344.258 411.36 345.338 413.24 347.258 414.68C349.178 416.12 351.538 416.84 354.338 416.84C356.898 416.84 358.858 416.36 360.218 415.4C361.658 414.36 362.378 413.04 362.378 411.44C362.378 409.52 361.378 408.12 359.378 407.24C357.378 406.28 354.138 405.24 349.658 404.12C344.858 403 340.858 401.84 337.658 400.64C334.458 399.36 331.698 397.4 329.378 394.76C327.058 392.04 325.898 388.4 325.898 383.84C325.898 380 326.938 376.52 329.018 373.4C331.178 370.2 334.298 367.68 338.378 365.84C342.538 364 347.458 363.08 353.138 363.08C361.538 363.08 368.138 365.16 372.938 369.32C377.818 373.48 380.618 379 381.338 385.88H362.378C362.058 383.56 361.018 381.72 359.258 380.36C357.578 379 355.338 378.32 352.538 378.32C350.138 378.32 348.298 378.8 347.018 379.76C345.738 380.64 345.098 381.88 345.098 383.48C345.098 385.4 346.098 386.84 348.098 387.8C350.178 388.76 353.378 389.72 357.698 390.68C362.658 391.96 366.698 393.24 369.818 394.52C372.938 395.72 375.658 397.72 377.978 400.52C380.378 403.24 381.618 406.92 381.698 411.56C381.698 415.48 380.578 419 378.338 422.12C376.178 425.16 373.018 427.56 368.858 429.32C364.778 431.08 360.018 431.96 354.578 431.96ZM404.573 357.08C400.973 357.08 398.013 356.04 395.693 353.96C393.453 351.8 392.333 349.16 392.333 346.04C392.333 342.84 393.453 340.2 395.693 338.12C398.013 335.96 400.973 334.88 404.573 334.88C408.093 334.88 410.973 335.96 413.213 338.12C415.533 340.2 416.693 342.84 416.693 346.04C416.693 349.16 415.533 351.8 413.213 353.96C410.973 356.04 408.093 357.08 404.573 357.08ZM414.773 364.04V431H394.253V364.04H414.773ZM450.163 373.52C452.163 370.4 454.923 367.88 458.443 365.96C461.963 364.04 466.083 363.08 470.803 363.08C476.323 363.08 481.323 364.48 485.803 367.28C490.283 370.08 493.803 374.08 496.363 379.28C499.003 384.48 500.323 390.52 500.323 397.4C500.323 404.28 499.003 410.36 496.363 415.64C493.803 420.84 490.283 424.88 485.803 427.76C481.323 430.56 476.323 431.96 470.803 431.96C466.163 431.96 462.043 431 458.443 429.08C454.923 427.16 452.163 424.68 450.163 421.64V462.92H429.643V364.04H450.163V373.52ZM479.443 397.4C479.443 392.28 478.003 388.28 475.123 385.4C472.323 382.44 468.843 380.96 464.683 380.96C460.603 380.96 457.123 382.44 454.243 385.4C451.443 388.36 450.043 392.4 450.043 397.52C450.043 402.64 451.443 406.68 454.243 409.64C457.123 412.6 460.603 414.08 464.683 414.08C468.763 414.08 472.243 412.6 475.123 409.64C478.003 406.6 479.443 402.52 479.443 397.4ZM552.008 431L531.608 402.92V431H511.088V342.2H531.608V391.28L551.888 364.04H577.208L549.368 397.64L577.448 431H552.008ZM581.188 397.4C581.188 390.52 582.468 384.48 585.028 379.28C587.668 374.08 591.228 370.08 595.708 367.28C600.188 364.48 605.188 363.08 610.708 363.08C615.428 363.08 619.548 364.04 623.068 365.96C626.668 367.88 629.428 370.4 631.348 373.52V364.04H651.868V431H631.348V421.52C629.348 424.64 626.548 427.16 622.948 429.08C619.428 431 615.308 431.96 610.588 431.96C605.148 431.96 600.188 430.56 595.708 427.76C591.228 424.88 587.668 420.84 585.028 415.64C582.468 410.36 581.188 404.28 581.188 397.4ZM631.348 397.52C631.348 392.4 629.908 388.36 627.028 385.4C624.228 382.44 620.788 380.96 616.708 380.96C612.628 380.96 609.148 382.44 606.268 385.4C603.468 388.28 602.068 392.28 602.068 397.4C602.068 402.52 603.468 406.6 606.268 409.64C609.148 412.6 612.628 414.08 616.708 414.08C620.788 414.08 624.228 412.6 627.028 409.64C629.908 406.68 631.348 402.64 631.348 397.52ZM707.513 363.32C715.353 363.32 721.593 365.88 726.233 371C730.953 376.04 733.313 383 733.313 391.88V431H712.913V394.64C712.913 390.16 711.753 386.68 709.433 384.2C707.113 381.72 703.993 380.48 700.073 380.48C696.153 380.48 693.033 381.72 690.713 384.2C688.393 386.68 687.233 390.16 687.233 394.64V431H666.713V364.04H687.233V372.92C689.313 369.96 692.113 367.64 695.633 365.96C699.153 364.2 703.113 363.32 707.513 363.32ZM757.173 431.96C753.573 431.96 750.613 430.92 748.293 428.84C746.053 426.68 744.933 424.04 744.933 420.92C744.933 417.72 746.053 415.04 748.293 412.88C750.613 410.72 753.573 409.64 757.173 409.64C760.693 409.64 763.573 410.72 765.813 412.88C768.133 415.04 769.293 417.72 769.293 420.92C769.293 424.04 768.133 426.68 765.813 428.84C763.573 430.92 760.693 431.96 757.173 431.96Z"/>
</mask>
<path d="M239.974 416.12L240.921 415.799L240.691 415.12H239.974V416.12ZM208.534 416.12V415.12H207.817L207.587 415.799L208.534 416.12ZM203.494 431V432H204.211L204.441 431.321L203.494 431ZM182.014 431L181.073 430.66L180.588 432H182.014V431ZM212.494 346.76V345.76H211.792L211.553 346.42L212.494 346.76ZM236.254 346.76L237.194 346.42L236.955 345.76H236.254V346.76ZM266.734 431V432H268.159L267.674 430.66L266.734 431ZM245.014 431L244.067 431.321L244.297 432H245.014V431ZM234.694 400.28V401.28H236.088L235.641 399.959L234.694 400.28ZM224.254 369.44L225.201 369.119L224.248 366.305L223.305 369.123L224.254 369.44ZM213.934 400.28L212.985 399.963L212.545 401.28H213.934V400.28ZM239.974 416.12V415.12H208.534V416.12V417.12H239.974V416.12ZM208.534 416.12L207.587 415.799L202.547 430.679L203.494 431L204.441 431.321L209.481 416.441L208.534 416.12ZM203.494 431V430H182.014V431V432H203.494V431ZM182.014 431L182.954 431.34L213.434 347.1L212.494 346.76L211.553 346.42L181.073 430.66L182.014 431ZM212.494 346.76V347.76H236.254V346.76V345.76H212.494V346.76ZM236.254 346.76L235.313 347.1L265.793 431.34L266.734 431L267.674 430.66L237.194 346.42L236.254 346.76ZM266.734 431V430H245.014V431V432H266.734V431ZM245.014 431L245.961 430.679L240.921 415.799L239.974 416.12L239.027 416.441L244.067 431.321L245.014 431ZM234.694 400.28L235.641 399.959L225.201 369.119L224.254 369.44L223.307 369.761L233.747 400.601L234.694 400.28ZM224.254 369.44L223.305 369.123L212.985 399.963L213.934 400.28L214.882 400.597L225.202 369.757L224.254 369.44ZM213.934 400.28V401.28H234.694V400.28V399.28H213.934V400.28ZM296.53 375.2H295.53V378.564L297.368 375.746L296.53 375.2ZM305.53 366.56L306.031 367.426L306.038 367.422L306.045 367.417L305.53 366.56ZM317.53 363.32H318.53V362.32H317.53V363.32ZM317.53 385.04V386.04H318.53V385.04H317.53ZM300.37 388.4L301.015 389.164L301.022 389.158L301.029 389.153L300.37 388.4ZM296.53 431V432H297.53V431H296.53ZM276.01 431H275.01V432H276.01V431ZM276.01 364.04V363.04H275.01V364.04H276.01ZM296.53 364.04H297.53V363.04H296.53V364.04ZM296.53 375.2L297.368 375.746C299.687 372.19 302.574 369.423 306.031 367.426L305.53 366.56L305.03 365.694C301.286 367.857 298.173 370.85 295.693 374.654L296.53 375.2ZM305.53 366.56L306.045 367.417C309.482 365.355 313.302 364.32 317.53 364.32V363.32V362.32C312.958 362.32 308.779 363.445 305.016 365.703L305.53 366.56ZM317.53 363.32H316.53V385.04H317.53H318.53V363.32H317.53ZM317.53 385.04V384.04H311.89V385.04V386.04H317.53V385.04ZM311.89 385.04V384.04C306.647 384.04 302.527 385.184 299.712 387.647L300.37 388.4L301.029 389.153C303.334 387.136 306.894 386.04 311.89 386.04V385.04ZM300.37 388.4L299.725 387.636C296.829 390.08 295.53 394.292 295.53 399.92H296.53H297.53C297.53 394.508 298.792 391.04 301.015 389.164L300.37 388.4ZM296.53 399.92H295.53V431H296.53H297.53V399.92H296.53ZM296.53 431V430H276.01V431V432H296.53V431ZM276.01 431H277.01V364.04H276.01H275.01V431H276.01ZM276.01 364.04V365.04H296.53V364.04V363.04H276.01V364.04ZM296.53 364.04H295.53V375.2H296.53H297.53V364.04H296.53ZM338.978 428.96L339.38 428.044L339.38 428.044L338.978 428.96ZM328.178 420.8L327.378 421.4L327.385 421.409L328.178 420.8ZM323.738 409.04V408.04H322.662L322.741 409.114L323.738 409.04ZM344.018 409.04L345.013 408.937L344.92 408.04H344.018V409.04ZM347.258 414.68L347.858 413.88L347.858 413.88L347.258 414.68ZM360.218 415.4L360.795 416.217L360.804 416.211L360.218 415.4ZM359.378 407.24L358.946 408.142L358.961 408.149L358.976 408.155L359.378 407.24ZM349.658 404.12L349.901 403.15L349.893 403.148L349.886 403.146L349.658 404.12ZM337.658 400.64L337.287 401.568L337.297 401.573L337.307 401.576L337.658 400.64ZM329.378 394.76L328.618 395.409L328.622 395.415L328.627 395.42L329.378 394.76ZM329.018 373.4L328.19 372.841L328.186 372.845L329.018 373.4ZM338.378 365.84L337.974 364.925L337.967 364.928L338.378 365.84ZM372.938 369.32L372.283 370.076L372.29 370.081L372.938 369.32ZM381.338 385.88V386.88H382.449L382.333 385.776L381.338 385.88ZM362.378 385.88L361.388 386.017L361.507 386.88H362.378V385.88ZM359.258 380.36L358.629 381.137L358.638 381.144L358.647 381.151L359.258 380.36ZM347.018 379.76L347.585 380.584L347.602 380.572L347.618 380.56L347.018 379.76ZM348.098 387.8L347.666 388.702L347.673 388.705L347.679 388.708L348.098 387.8ZM357.698 390.68L357.948 389.712L357.932 389.707L357.915 389.704L357.698 390.68ZM369.818 394.52L369.439 395.445L369.449 395.449L369.459 395.453L369.818 394.52ZM377.978 400.52L377.208 401.158L377.218 401.17L377.229 401.182L377.978 400.52ZM381.698 411.56H382.698V411.551L382.698 411.543L381.698 411.56ZM378.338 422.12L377.526 421.537L377.523 421.541L378.338 422.12ZM368.858 429.32L368.469 428.399L368.462 428.402L368.858 429.32ZM354.578 431.96V430.96C348.853 430.96 343.793 429.98 339.38 428.044L338.978 428.96L338.577 429.876C343.283 431.94 348.624 432.96 354.578 432.96V431.96ZM338.978 428.96L339.38 428.044C334.951 426.102 331.495 423.479 328.972 420.191L328.178 420.8L327.385 421.409C330.142 425.001 333.886 427.818 338.577 429.876L338.978 428.96ZM328.178 420.8L328.978 420.2C326.451 416.83 325.041 413.092 324.736 408.966L323.738 409.04L322.741 409.114C323.076 413.628 324.626 417.73 327.378 421.4L328.178 420.8ZM323.738 409.04V410.04H344.018V409.04V408.04H323.738V409.04ZM344.018 409.04L343.024 409.143C343.293 411.749 344.523 413.878 346.658 415.48L347.258 414.68L347.858 413.88C346.154 412.602 345.224 410.971 345.013 408.937L344.018 409.04ZM347.258 414.68L346.658 415.48C348.779 417.071 351.359 417.84 354.338 417.84V416.84V415.84C351.717 415.84 349.578 415.169 347.858 413.88L347.258 414.68ZM354.338 416.84V417.84C357.001 417.84 359.198 417.344 360.795 416.217L360.218 415.4L359.642 414.583C358.519 415.376 356.796 415.84 354.338 415.84V416.84ZM360.218 415.4L360.804 416.211C362.471 415.007 363.378 413.4 363.378 411.44H362.378H361.378C361.378 412.68 360.846 413.713 359.633 414.589L360.218 415.4ZM362.378 411.44H363.378C363.378 410.297 363.077 409.258 362.442 408.369C361.813 407.488 360.902 406.818 359.781 406.325L359.378 407.24L358.976 408.155C359.855 408.542 360.444 409.012 360.815 409.531C361.18 410.042 361.378 410.663 361.378 411.44H362.378ZM359.378 407.24L359.811 406.338C357.715 405.332 354.392 404.273 349.901 403.15L349.658 404.12L349.416 405.09C353.885 406.207 357.042 407.228 358.946 408.142L359.378 407.24ZM349.658 404.12L349.886 403.146C345.111 402.032 341.156 400.883 338.01 399.704L337.658 400.64L337.307 401.576C340.561 402.797 344.606 403.968 349.431 405.094L349.658 404.12ZM337.658 400.64L338.03 399.712C334.979 398.491 332.348 396.624 330.13 394.1L329.378 394.76L328.627 395.42C331.049 398.176 333.938 400.229 337.287 401.568L337.658 400.64ZM329.378 394.76L330.139 394.111C328.012 391.617 326.898 388.229 326.898 383.84H325.898H324.898C324.898 388.571 326.105 392.463 328.618 395.409L329.378 394.76ZM325.898 383.84H326.898C326.898 380.192 327.883 376.906 329.85 373.955L329.018 373.4L328.186 372.845C325.994 376.134 324.898 379.808 324.898 383.84H325.898ZM329.018 373.4L329.847 373.959C331.888 370.937 334.851 368.528 338.79 366.752L338.378 365.84L337.967 364.928C333.746 366.832 330.469 369.463 328.19 372.841L329.018 373.4ZM338.378 365.84L338.783 366.755C342.788 364.983 347.564 364.08 353.138 364.08V363.08V362.08C347.353 362.08 342.289 363.017 337.974 364.925L338.378 365.84ZM353.138 363.08V364.08C361.377 364.08 367.717 366.118 372.284 370.076L372.938 369.32L373.593 368.564C368.56 364.202 361.7 362.08 353.138 362.08V363.08ZM372.938 369.32L372.29 370.081C376.958 374.061 379.648 379.337 380.344 385.984L381.338 385.88L382.333 385.776C381.589 378.663 378.679 372.899 373.587 368.559L372.938 369.32ZM381.338 385.88V384.88H362.378V385.88V386.88H381.338V385.88ZM362.378 385.88L363.369 385.743C363.015 383.179 361.849 381.098 359.87 379.569L359.258 380.36L358.647 381.151C360.188 382.342 361.102 383.941 361.388 386.017L362.378 385.88ZM359.258 380.36L359.888 379.583C357.983 378.041 355.499 377.32 352.538 377.32V378.32V379.32C355.178 379.32 357.174 379.959 358.629 381.137L359.258 380.36ZM352.538 378.32V377.32C350.025 377.32 347.939 377.82 346.418 378.96L347.018 379.76L347.618 380.56C348.658 379.78 350.252 379.32 352.538 379.32V378.32ZM347.018 379.76L346.452 378.936C344.891 380.009 344.098 381.563 344.098 383.48H345.098H346.098C346.098 382.197 346.586 381.271 347.585 380.584L347.018 379.76ZM345.098 383.48H344.098C344.098 384.624 344.4 385.667 345.027 386.57C345.649 387.466 346.55 388.166 347.666 388.702L348.098 387.8L348.531 386.898C347.646 386.474 347.048 385.974 346.67 385.43C346.297 384.893 346.098 384.256 346.098 383.48H345.098ZM348.098 387.8L347.679 388.708C349.859 389.714 353.144 390.692 357.482 391.656L357.698 390.68L357.915 389.704C353.613 388.748 350.498 387.806 348.517 386.892L348.098 387.8ZM357.698 390.68L357.449 391.648C362.385 392.922 366.377 394.189 369.439 395.445L369.818 394.52L370.198 393.595C367.02 392.291 362.932 390.998 357.948 389.712L357.698 390.68ZM369.818 394.52L369.459 395.453C372.406 396.586 374.988 398.478 377.208 401.158L377.978 400.52L378.748 399.882C376.329 396.962 373.471 394.854 370.177 393.587L369.818 394.52ZM377.978 400.52L377.229 401.182C379.432 403.678 380.622 407.107 380.699 411.577L381.698 411.56L382.698 411.543C382.615 406.733 381.325 402.802 378.728 399.858L377.978 400.52ZM381.698 411.56H380.698C380.698 415.275 379.641 418.59 377.526 421.537L378.338 422.12L379.151 422.703C381.515 419.41 382.698 415.685 382.698 411.56H381.698ZM378.338 422.12L377.523 421.541C375.491 424.4 372.494 426.696 368.469 428.399L368.858 429.32L369.248 430.241C373.543 428.424 376.865 425.92 379.154 422.699L378.338 422.12ZM368.858 429.32L368.462 428.402C364.532 430.097 359.912 430.96 354.578 430.96V431.96V432.96C360.125 432.96 365.025 432.063 369.255 430.238L368.858 429.32ZM395.693 353.96L394.998 354.68L395.011 354.692L395.025 354.705L395.693 353.96ZM395.693 338.12L396.373 338.853L396.374 338.852L395.693 338.12ZM413.213 338.12L412.518 338.84L412.531 338.852L412.545 338.865L413.213 338.12ZM413.213 353.96L413.893 354.693L413.894 354.692L413.213 353.96ZM414.773 364.04H415.773V363.04H414.773V364.04ZM414.773 431V432H415.773V431H414.773ZM394.253 431H393.253V432H394.253V431ZM394.253 364.04V363.04H393.253V364.04H394.253ZM404.573 357.08V356.08C401.178 356.08 398.468 355.106 396.36 353.215L395.693 353.96L395.025 354.705C397.557 356.974 400.767 358.08 404.573 358.08V357.08ZM395.693 353.96L396.387 353.24C394.343 351.269 393.333 348.889 393.333 346.04H392.333H391.333C391.333 349.431 392.562 352.331 394.998 354.68L395.693 353.96ZM392.333 346.04H393.333C393.333 343.103 394.347 340.734 396.373 338.853L395.693 338.12L395.012 337.387C392.558 339.666 391.333 342.577 391.333 346.04H392.333ZM395.693 338.12L396.374 338.852C398.483 336.888 401.188 335.88 404.573 335.88V334.88V333.88C400.757 333.88 397.542 335.032 395.011 337.388L395.693 338.12ZM404.573 334.88V335.88C407.87 335.88 410.49 336.884 412.518 338.84L413.213 338.12L413.907 337.4C411.455 335.036 408.315 333.88 404.573 333.88V334.88ZM413.213 338.12L412.545 338.865C414.647 340.749 415.693 343.115 415.693 346.04H416.693H417.693C417.693 342.565 416.418 339.651 413.88 337.375L413.213 338.12ZM416.693 346.04H415.693C415.693 348.877 414.652 351.254 412.531 353.228L413.213 353.96L413.894 354.692C416.413 352.346 417.693 349.443 417.693 346.04H416.693ZM413.213 353.96L412.532 353.227C410.505 355.109 407.881 356.08 404.573 356.08V357.08V358.08C408.304 358.08 411.44 356.971 413.893 354.693L413.213 353.96ZM414.773 364.04H413.773V431H414.773H415.773V364.04H414.773ZM414.773 431V430H394.253V431V432H414.773V431ZM394.253 431H395.253V364.04H394.253H393.253V431H394.253ZM394.253 364.04V365.04H414.773V364.04V363.04H394.253V364.04ZM450.163 373.52H449.163V376.933L451.005 374.06L450.163 373.52ZM458.443 365.96L457.964 365.082L457.964 365.082L458.443 365.96ZM485.803 367.28L485.273 368.128L485.273 368.128L485.803 367.28ZM496.363 379.28L495.466 379.722L495.471 379.733L496.363 379.28ZM496.363 415.64L495.469 415.193L495.466 415.198L496.363 415.64ZM485.803 427.76L486.333 428.608L486.344 428.601L485.803 427.76ZM458.443 429.08L457.964 429.958L457.973 429.962L458.443 429.08ZM450.163 421.64L450.999 421.09L449.163 418.301V421.64H450.163ZM450.163 462.92V463.92H451.163V462.92H450.163ZM429.643 462.92H428.643V463.92H429.643V462.92ZM429.643 364.04V363.04H428.643V364.04H429.643ZM450.163 364.04H451.163V363.04H450.163V364.04ZM475.123 385.4L474.397 386.087L474.406 386.097L474.416 386.107L475.123 385.4ZM454.243 385.4L453.526 384.703L453.517 384.713L454.243 385.4ZM454.243 409.64L453.517 410.327L453.526 410.337L454.243 409.64ZM475.123 409.64L475.84 410.337L475.849 410.328L475.123 409.64ZM450.163 373.52L451.005 374.06C452.907 371.093 455.537 368.684 458.922 366.838L458.443 365.96L457.964 365.082C454.309 367.076 451.419 369.707 449.321 372.98L450.163 373.52ZM458.443 365.96L458.922 366.838C462.271 365.011 466.221 364.08 470.803 364.08V363.08V362.08C465.946 362.08 461.655 363.069 457.964 365.082L458.443 365.96ZM470.803 363.08V364.08C476.145 364.08 480.959 365.432 485.273 368.128L485.803 367.28L486.333 366.432C481.687 363.528 476.502 362.08 470.803 362.08V363.08ZM485.803 367.28L485.273 368.128C489.58 370.82 492.98 374.672 495.466 379.722L496.363 379.28L497.26 378.838C494.626 373.488 490.986 369.34 486.333 366.432L485.803 367.28ZM496.363 379.28L495.471 379.733C498.029 384.769 499.323 390.649 499.323 397.4H500.323H501.323C501.323 390.391 499.978 384.191 497.255 378.827L496.363 379.28ZM500.323 397.4H499.323C499.323 404.15 498.029 410.073 495.469 415.193L496.363 415.64L497.258 416.087C499.978 410.647 501.323 404.41 501.323 397.4H500.323ZM496.363 415.64L495.466 415.198C492.979 420.25 489.576 424.146 485.262 426.919L485.803 427.76L486.344 428.601C490.99 425.614 494.627 421.43 497.26 416.082L496.363 415.64ZM485.803 427.76L485.273 426.912C480.959 429.608 476.145 430.96 470.803 430.96V431.96V432.96C476.502 432.96 481.687 431.512 486.333 428.608L485.803 427.76ZM470.803 431.96V430.96C466.304 430.96 462.35 430.03 458.914 428.198L458.443 429.08L457.973 429.962C461.736 431.97 466.022 432.96 470.803 432.96V431.96ZM458.443 429.08L458.922 428.202C455.531 426.352 452.899 423.98 450.999 421.09L450.163 421.64L449.328 422.19C451.427 425.38 454.315 427.968 457.964 429.958L458.443 429.08ZM450.163 421.64H449.163V462.92H450.163H451.163V421.64H450.163ZM450.163 462.92V461.92H429.643V462.92V463.92H450.163V462.92ZM429.643 462.92H430.643V364.04H429.643H428.643V462.92H429.643ZM429.643 364.04V365.04H450.163V364.04V363.04H429.643V364.04ZM450.163 364.04H449.163V373.52H450.163H451.163V364.04H450.163ZM479.443 397.4H480.443C480.443 392.087 478.943 387.806 475.83 384.693L475.123 385.4L474.416 386.107C477.063 388.754 478.443 392.473 478.443 397.4H479.443ZM475.123 385.4L475.85 384.713C472.856 381.548 469.111 379.96 464.683 379.96V380.96V381.96C468.575 381.96 471.79 383.332 474.397 386.087L475.123 385.4ZM464.683 380.96V379.96C460.329 379.96 456.592 381.552 453.526 384.703L454.243 385.4L454.96 386.097C457.654 383.328 460.877 381.96 464.683 381.96V380.96ZM454.243 385.4L453.517 384.713C450.499 387.903 449.043 392.213 449.043 397.52H450.043H451.043C451.043 392.587 452.387 388.817 454.97 386.087L454.243 385.4ZM450.043 397.52H449.043C449.043 402.827 450.499 407.137 453.517 410.327L454.243 409.64L454.97 408.953C452.387 406.223 451.043 402.453 451.043 397.52H450.043ZM454.243 409.64L453.526 410.337C456.592 413.488 460.329 415.08 464.683 415.08V414.08V413.08C460.877 413.08 457.654 411.712 454.96 408.943L454.243 409.64ZM464.683 414.08V415.08C469.037 415.08 472.774 413.488 475.84 410.337L475.123 409.64L474.406 408.943C471.712 411.712 468.489 413.08 464.683 413.08V414.08ZM475.123 409.64L475.849 410.328C478.942 407.063 480.443 402.716 480.443 397.4H479.443H478.443C478.443 402.324 477.064 406.137 474.397 408.952L475.123 409.64ZM552.008 431L551.199 431.588L551.499 432H552.008V431ZM531.608 402.92L532.417 402.332L530.608 399.842V402.92H531.608ZM531.608 431V432H532.608V431H531.608ZM511.088 431H510.088V432H511.088V431ZM511.088 342.2V341.2H510.088V342.2H511.088ZM531.608 342.2H532.608V341.2H531.608V342.2ZM531.608 391.28H530.608V394.298L532.411 391.877L531.608 391.28ZM551.888 364.04V363.04H551.386L551.086 363.443L551.888 364.04ZM577.208 364.04L577.978 364.678L579.336 363.04H577.208V364.04ZM549.368 397.64L548.598 397.002L548.066 397.645L548.603 398.284L549.368 397.64ZM577.448 431V432H579.597L578.213 430.356L577.448 431ZM552.008 431L552.817 430.412L532.417 402.332L531.608 402.92L530.799 403.508L551.199 431.588L552.008 431ZM531.608 402.92H530.608V431H531.608H532.608V402.92H531.608ZM531.608 431V430H511.088V431V432H531.608V431ZM511.088 431H512.088V342.2H511.088H510.088V431H511.088ZM511.088 342.2V343.2H531.608V342.2V341.2H511.088V342.2ZM531.608 342.2H530.608V391.28H531.608H532.608V342.2H531.608ZM531.608 391.28L532.411 391.877L552.691 364.637L551.888 364.04L551.086 363.443L530.806 390.683L531.608 391.28ZM551.888 364.04V365.04H577.208V364.04V363.04H551.888V364.04ZM577.208 364.04L576.438 363.402L548.598 397.002L549.368 397.64L550.138 398.278L577.978 364.678L577.208 364.04ZM549.368 397.64L548.603 398.284L576.683 431.644L577.448 431L578.213 430.356L550.133 396.996L549.368 397.64ZM577.448 431V430H552.008V431V432H577.448V431ZM585.028 379.28L584.136 378.827L584.131 378.838L585.028 379.28ZM595.708 367.28L596.238 368.128L596.238 368.128L595.708 367.28ZM623.068 365.96L622.589 366.838L622.598 366.842L623.068 365.96ZM631.348 373.52L630.496 374.044L632.348 377.053V373.52H631.348ZM631.348 364.04V363.04H630.348V364.04H631.348ZM651.868 364.04H652.868V363.04H651.868V364.04ZM651.868 431V432H652.868V431H651.868ZM631.348 431H630.348V432H631.348V431ZM631.348 421.52H632.348V418.107L630.506 420.98L631.348 421.52ZM622.948 429.08L622.478 428.198L622.469 428.202L622.948 429.08ZM595.708 427.76L595.167 428.601L595.178 428.608L595.708 427.76ZM585.028 415.64L584.128 416.076L584.132 416.085L584.136 416.093L585.028 415.64ZM627.028 385.4L626.302 386.087L626.311 386.097L627.028 385.4ZM606.268 385.4L605.551 384.703L605.551 384.703L606.268 385.4ZM606.268 409.64L605.533 410.317L605.542 410.328L605.551 410.337L606.268 409.64ZM627.028 409.64L626.311 408.943L626.302 408.953L627.028 409.64ZM581.188 397.4H582.188C582.188 390.645 583.444 384.761 585.925 379.722L585.028 379.28L584.131 378.838C581.492 384.199 580.188 390.395 580.188 397.4H581.188ZM585.028 379.28L585.92 379.733C588.486 374.678 591.928 370.822 596.238 368.128L595.708 367.28L595.178 366.432C590.528 369.338 586.85 373.482 584.136 378.827L585.028 379.28ZM595.708 367.28L596.238 368.128C600.552 365.432 605.367 364.08 610.708 364.08V363.08V362.08C605.01 362.08 599.824 363.528 595.178 366.432L595.708 367.28ZM610.708 363.08V364.08C615.291 364.08 619.24 365.011 622.589 366.838L623.068 365.96L623.547 365.082C619.856 363.069 615.566 362.08 610.708 362.08V363.08ZM623.068 365.96L622.598 366.842C626.059 368.689 628.68 371.092 630.496 374.044L631.348 373.52L632.2 372.996C630.177 369.708 627.277 367.071 623.539 365.078L623.068 365.96ZM631.348 373.52H632.348V364.04H631.348H630.348V373.52H631.348ZM631.348 364.04V365.04H651.868V364.04V363.04H631.348V364.04ZM651.868 364.04H650.868V431H651.868H652.868V364.04H651.868ZM651.868 431V430H631.348V431V432H651.868V431ZM631.348 431H632.348V421.52H631.348H630.348V431H631.348ZM631.348 421.52L630.506 420.98C628.608 423.942 625.942 426.35 622.478 428.198L622.948 429.08L623.419 429.962C627.154 427.97 630.089 425.338 632.19 422.06L631.348 421.52ZM622.948 429.08L622.469 428.202C619.12 430.029 615.171 430.96 610.588 430.96V431.96V432.96C615.446 432.96 619.736 431.971 623.427 429.958L622.948 429.08ZM610.588 431.96V430.96C605.33 430.96 600.554 429.61 596.238 426.912L595.708 427.76L595.178 428.608C599.822 431.51 604.967 432.96 610.588 432.96V431.96ZM595.708 427.76L596.249 426.919C591.932 424.144 588.487 420.244 585.92 415.187L585.028 415.64L584.136 416.093C586.849 421.436 590.524 425.616 595.167 428.601L595.708 427.76ZM585.028 415.64L585.928 415.204C583.444 410.081 582.188 404.155 582.188 397.4H581.188H580.188C580.188 404.405 581.492 410.639 584.128 416.076L585.028 415.64ZM631.348 397.52H632.348C632.348 392.205 630.848 387.892 627.745 384.703L627.028 385.4L626.311 386.097C628.968 388.828 630.348 392.595 630.348 397.52H631.348ZM627.028 385.4L627.755 384.713C624.765 381.553 621.063 379.96 616.708 379.96V380.96V381.96C620.514 381.96 623.691 383.327 626.302 386.087L627.028 385.4ZM616.708 380.96V379.96C612.354 379.96 608.617 381.552 605.551 384.703L606.268 385.4L606.985 386.097C609.679 383.328 612.902 381.96 616.708 381.96V380.96ZM606.268 385.4L605.551 384.703C602.524 387.817 601.068 392.094 601.068 397.4H602.068H603.068C603.068 392.466 604.413 388.743 606.985 386.097L606.268 385.4ZM602.068 397.4H601.068C601.068 402.708 602.524 407.051 605.533 410.317L606.268 409.64L607.004 408.963C604.412 406.149 603.068 402.332 603.068 397.4H602.068ZM606.268 409.64L605.551 410.337C608.617 413.488 612.354 415.08 616.708 415.08V414.08V413.08C612.902 413.08 609.679 411.712 606.985 408.943L606.268 409.64ZM616.708 414.08V415.08C621.063 415.08 624.765 413.487 627.755 410.327L627.028 409.64L626.302 408.953C623.691 411.713 620.514 413.08 616.708 413.08V414.08ZM627.028 409.64L627.745 410.337C630.848 407.148 632.348 402.835 632.348 397.52H631.348H630.348C630.348 402.445 628.968 406.212 626.311 408.943L627.028 409.64ZM726.233 371L725.492 371.672L725.498 371.678L725.504 371.684L726.233 371ZM733.313 431V432H734.313V431H733.313ZM712.913 431H711.913V432H712.913V431ZM709.433 384.2L708.703 384.883L708.703 384.883L709.433 384.2ZM690.713 384.2L691.444 384.883L691.444 384.883L690.713 384.2ZM687.233 431V432H688.233V431H687.233ZM666.713 431H665.713V432H666.713V431ZM666.713 364.04V363.04H665.713V364.04H666.713ZM687.233 364.04H688.233V363.04H687.233V364.04ZM687.233 372.92H686.233V376.082L688.052 373.495L687.233 372.92ZM695.633 365.96L696.064 366.862L696.072 366.859L696.081 366.854L695.633 365.96ZM707.513 363.32V364.32C715.113 364.32 721.069 366.79 725.492 371.672L726.233 371L726.974 370.328C722.118 364.97 715.594 362.32 707.513 362.32V363.32ZM726.233 371L725.504 371.684C730.005 376.49 732.313 383.179 732.313 391.88H733.313H734.313C734.313 382.821 731.902 375.59 726.963 370.316L726.233 371ZM733.313 391.88H732.313V431H733.313H734.313V391.88H733.313ZM733.313 431V430H712.913V431V432H733.313V431ZM712.913 431H713.913V394.64H712.913H711.913V431H712.913ZM712.913 394.64H713.913C713.913 389.989 712.707 386.235 710.164 383.517L709.433 384.2L708.703 384.883C710.8 387.125 711.913 390.331 711.913 394.64H712.913ZM709.433 384.2L710.164 383.517C707.625 380.803 704.223 379.48 700.073 379.48V380.48V381.48C703.763 381.48 706.602 382.637 708.703 384.883L709.433 384.2ZM700.073 380.48V379.48C695.923 379.48 692.522 380.803 689.983 383.517L690.713 384.2L691.444 384.883C693.545 382.637 696.383 381.48 700.073 381.48V380.48ZM690.713 384.2L689.983 383.517C687.44 386.235 686.233 389.989 686.233 394.64H687.233H688.233C688.233 390.331 689.347 387.125 691.444 384.883L690.713 384.2ZM687.233 394.64H686.233V431H687.233H688.233V394.64H687.233ZM687.233 431V430H666.713V431V432H687.233V431ZM666.713 431H667.713V364.04H666.713H665.713V431H666.713ZM666.713 364.04V365.04H687.233V364.04V363.04H666.713V364.04ZM687.233 364.04H686.233V372.92H687.233H688.233V364.04H687.233ZM687.233 372.92L688.052 373.495C690.025 370.687 692.687 368.474 696.064 366.862L695.633 365.96L695.203 365.058C691.54 366.806 688.602 369.233 686.415 372.345L687.233 372.92ZM695.633 365.96L696.081 366.854C699.446 365.172 703.25 364.32 707.513 364.32V363.32V362.32C702.977 362.32 698.861 363.228 695.186 365.066L695.633 365.96ZM748.293 428.84L747.599 429.56L747.612 429.572L747.625 429.585L748.293 428.84ZM748.293 412.88L747.611 412.148L747.605 412.154L747.599 412.16L748.293 412.88ZM765.813 412.88L765.119 413.6L765.125 413.606L765.131 413.612L765.813 412.88ZM765.813 428.84L766.493 429.573L766.494 429.572L765.813 428.84ZM757.173 431.96V430.96C753.778 430.96 751.069 429.986 748.96 428.095L748.293 428.84L747.625 429.585C750.157 431.854 753.367 432.96 757.173 432.96V431.96ZM748.293 428.84L748.987 428.12C746.943 426.149 745.933 423.769 745.933 420.92H744.933H743.933C743.933 424.311 745.163 427.211 747.599 429.56L748.293 428.84ZM744.933 420.92H745.933C745.933 417.983 746.949 415.565 748.987 413.6L748.293 412.88L747.599 412.16C745.157 414.515 743.933 417.457 743.933 420.92H744.933ZM748.293 412.88L748.974 413.612C751.084 411.648 753.789 410.64 757.173 410.64V409.64V408.64C753.357 408.64 750.142 409.792 747.611 412.148L748.293 412.88ZM757.173 409.64V410.64C760.471 410.64 763.09 411.644 765.119 413.6L765.813 412.88L766.507 412.16C764.056 409.796 760.915 408.64 757.173 408.64V409.64ZM765.813 412.88L765.131 413.612C767.246 415.581 768.293 417.995 768.293 420.92H769.293H770.293C770.293 417.445 769.02 414.499 766.494 412.148L765.813 412.88ZM769.293 420.92H768.293C768.293 423.757 767.252 426.134 765.131 428.108L765.813 428.84L766.494 429.572C769.014 427.226 770.293 424.323 770.293 420.92H769.293ZM765.813 428.84L765.132 428.107C763.105 429.989 760.481 430.96 757.173 430.96V431.96V432.96C760.904 432.96 764.04 431.851 766.493 429.573L765.813 428.84Z" fill="url(#paint3_linear_2073_48)" mask="url(#path-5-outside-2_2073_48)"/>
<path d="M28.96 239.76C28.96 231.44 30.76 224.04 34.36 217.56C37.96 211 42.96 205.92 49.36 202.32C55.84 198.64 63.16 196.8 71.32 196.8C81.32 196.8 89.88 199.44 97 204.72C104.12 210 108.88 217.2 111.28 226.32H88.72C87.04 222.8 84.64 220.12 81.52 218.28C78.48 216.44 75 215.52 71.08 215.52C64.76 215.52 59.64 217.72 55.72 222.12C51.8 226.52 49.84 232.4 49.84 239.76C49.84 247.12 51.8 253 55.72 257.4C59.64 261.8 64.76 264 71.08 264C75 264 78.48 263.08 81.52 261.24C84.64 259.4 87.04 256.72 88.72 253.2H111.28C108.88 262.32 104.12 269.52 97 274.8C89.88 280 81.32 282.6 71.32 282.6C63.16 282.6 55.84 280.8 49.36 277.2C42.96 273.52 37.96 268.44 34.36 261.96C30.76 255.48 28.96 248.08 28.96 239.76ZM134.166 208.08C130.566 208.08 127.606 207.04 125.286 204.96C123.046 202.8 121.926 200.16 121.926 197.04C121.926 193.84 123.046 191.2 125.286 189.12C127.606 186.96 130.566 185.88 134.166 185.88C137.686 185.88 140.566 186.96 142.806 189.12C145.126 191.2 146.286 193.84 146.286 197.04C146.286 200.16 145.126 202.8 142.806 204.96C140.566 207.04 137.686 208.08 134.166 208.08ZM144.366 215.04V282H123.846V215.04H144.366ZM179.757 224.52C181.757 221.4 184.517 218.88 188.037 216.96C191.557 215.04 195.677 214.08 200.397 214.08C205.917 214.08 210.917 215.48 215.397 218.28C219.877 221.08 223.397 225.08 225.957 230.28C228.597 235.48 229.917 241.52 229.917 248.4C229.917 255.28 228.597 261.36 225.957 266.64C223.397 271.84 219.877 275.88 215.397 278.76C210.917 281.56 205.917 282.96 200.397 282.96C195.757 282.96 191.637 282 188.037 280.08C184.517 278.16 181.757 275.68 179.757 272.64V313.92H159.237V215.04H179.757V224.52ZM209.037 248.4C209.037 243.28 207.597 239.28 204.717 236.4C201.917 233.44 198.437 231.96 194.277 231.96C190.197 231.96 186.717 233.44 183.837 236.4C181.037 239.36 179.637 243.4 179.637 248.52C179.637 253.64 181.037 257.68 183.837 260.64C186.717 263.6 190.197 265.08 194.277 265.08C198.357 265.08 201.837 263.6 204.717 260.64C207.597 257.6 209.037 253.52 209.037 248.4ZM278.002 264.6V282H267.562C260.122 282 254.322 280.2 250.162 276.6C246.002 272.92 243.922 266.96 243.922 258.72V232.08H235.762V215.04H243.922V198.72H264.442V215.04H277.882V232.08H264.442V258.96C264.442 260.96 264.922 262.4 265.882 263.28C266.842 264.16 268.442 264.6 270.682 264.6H278.002ZM285.352 248.4C285.352 241.52 286.632 235.48 289.192 230.28C291.832 225.08 295.392 221.08 299.872 218.28C304.352 215.48 309.352 214.08 314.872 214.08C319.592 214.08 323.712 215.04 327.232 216.96C330.832 218.88 333.592 221.4 335.512 224.52V215.04H356.032V282H335.512V272.52C333.512 275.64 330.712 278.16 327.112 280.08C323.592 282 319.472 282.96 314.752 282.96C309.312 282.96 304.352 281.56 299.872 278.76C295.392 275.88 291.832 271.84 289.192 266.64C286.632 261.36 285.352 255.28 285.352 248.4ZM335.512 248.52C335.512 243.4 334.072 239.36 331.192 236.4C328.392 233.44 324.952 231.96 320.872 231.96C316.792 231.96 313.312 233.44 310.432 236.4C307.632 239.28 306.232 243.28 306.232 248.4C306.232 253.52 307.632 257.6 310.432 260.64C313.312 263.6 316.792 265.08 320.872 265.08C324.952 265.08 328.392 263.6 331.192 260.64C334.072 257.68 335.512 253.64 335.512 248.52ZM411.798 282L391.398 253.92V282H370.878V193.2H391.398V242.28L411.678 215.04H436.998L409.158 248.64L437.238 282H411.798ZM440.977 248.4C440.977 241.52 442.257 235.48 444.817 230.28C447.457 225.08 451.017 221.08 455.497 218.28C459.977 215.48 464.977 214.08 470.497 214.08C475.217 214.08 479.337 215.04 482.857 216.96C486.457 218.88 489.217 221.4 491.137 224.52V215.04H511.657V282H491.137V272.52C489.137 275.64 486.337 278.16 482.737 280.08C479.217 282 475.097 282.96 470.377 282.96C464.937 282.96 459.977 281.56 455.497 278.76C451.017 275.88 447.457 271.84 444.817 266.64C442.257 261.36 440.977 255.28 440.977 248.4ZM491.137 248.52C491.137 243.4 489.697 239.36 486.817 236.4C484.017 233.44 480.577 231.96 476.497 231.96C472.417 231.96 468.937 233.44 466.057 236.4C463.257 239.28 461.857 243.28 461.857 248.4C461.857 253.52 463.257 257.6 466.057 260.64C468.937 263.6 472.417 265.08 476.497 265.08C480.577 265.08 484.017 263.6 486.817 260.64C489.697 257.68 491.137 253.64 491.137 248.52ZM567.303 214.32C575.143 214.32 581.383 216.88 586.023 222C590.743 227.04 593.103 234 593.103 242.88V282H572.703V245.64C572.703 241.16 571.543 237.68 569.223 235.2C566.903 232.72 563.783 231.48 559.863 231.48C555.943 231.48 552.823 232.72 550.503 235.2C548.183 237.68 547.023 241.16 547.023 245.64V282H526.503V215.04H547.023V223.92C549.103 220.96 551.903 218.64 555.423 216.96C558.943 215.2 562.903 214.32 567.303 214.32ZM629.442 263.04L616.122 297.48H603.042L610.002 263.04H629.442Z" fill="url(#paint4_linear_2073_48)"/>
<path d="M239.974 406.12H208.534L203.494 421H182.014L212.494 336.76H236.254L266.734 421H245.014L239.974 406.12ZM234.694 390.28L224.254 359.44L213.934 390.28H234.694ZM296.53 365.2C298.93 361.52 301.93 358.64 305.53 356.56C309.13 354.4 313.13 353.32 317.53 353.32V375.04H311.89C306.77 375.04 302.93 376.16 300.37 378.4C297.81 380.56 296.53 384.4 296.53 389.92V421H276.01V354.04H296.53V365.2ZM354.578 421.96C348.738 421.96 343.538 420.96 338.978 418.96C334.418 416.96 330.818 414.24 328.178 410.8C325.538 407.28 324.058 403.36 323.738 399.04H344.018C344.258 401.36 345.338 403.24 347.258 404.68C349.178 406.12 351.538 406.84 354.338 406.84C356.898 406.84 358.858 406.36 360.218 405.4C361.658 404.36 362.378 403.04 362.378 401.44C362.378 399.52 361.378 398.12 359.378 397.24C357.378 396.28 354.138 395.24 349.658 394.12C344.858 393 340.858 391.84 337.658 390.64C334.458 389.36 331.698 387.4 329.378 384.76C327.058 382.04 325.898 378.4 325.898 373.84C325.898 370 326.938 366.52 329.018 363.4C331.178 360.2 334.298 357.68 338.378 355.84C342.538 354 347.458 353.08 353.138 353.08C361.538 353.08 368.138 355.16 372.938 359.32C377.818 363.48 380.618 369 381.338 375.88H362.378C362.058 373.56 361.018 371.72 359.258 370.36C357.578 369 355.338 368.32 352.538 368.32C350.138 368.32 348.298 368.8 347.018 369.76C345.738 370.64 345.098 371.88 345.098 373.48C345.098 375.4 346.098 376.84 348.098 377.8C350.178 378.76 353.378 379.72 357.698 380.68C362.658 381.96 366.698 383.24 369.818 384.52C372.938 385.72 375.658 387.72 377.978 390.52C380.378 393.24 381.618 396.92 381.698 401.56C381.698 405.48 380.578 409 378.338 412.12C376.178 415.16 373.018 417.56 368.858 419.32C364.778 421.08 360.018 421.96 354.578 421.96ZM404.573 347.08C400.973 347.08 398.013 346.04 395.693 343.96C393.453 341.8 392.333 339.16 392.333 336.04C392.333 332.84 393.453 330.2 395.693 328.12C398.013 325.96 400.973 324.88 404.573 324.88C408.093 324.88 410.973 325.96 413.213 328.12C415.533 330.2 416.693 332.84 416.693 336.04C416.693 339.16 415.533 341.8 413.213 343.96C410.973 346.04 408.093 347.08 404.573 347.08ZM414.773 354.04V421H394.253V354.04H414.773ZM450.163 363.52C452.163 360.4 454.923 357.88 458.443 355.96C461.963 354.04 466.083 353.08 470.803 353.08C476.323 353.08 481.323 354.48 485.803 357.28C490.283 360.08 493.803 364.08 496.363 369.28C499.003 374.48 500.323 380.52 500.323 387.4C500.323 394.28 499.003 400.36 496.363 405.64C493.803 410.84 490.283 414.88 485.803 417.76C481.323 420.56 476.323 421.96 470.803 421.96C466.163 421.96 462.043 421 458.443 419.08C454.923 417.16 452.163 414.68 450.163 411.64V452.92H429.643V354.04H450.163V363.52ZM479.443 387.4C479.443 382.28 478.003 378.28 475.123 375.4C472.323 372.44 468.843 370.96 464.683 370.96C460.603 370.96 457.123 372.44 454.243 375.4C451.443 378.36 450.043 382.4 450.043 387.52C450.043 392.64 451.443 396.68 454.243 399.64C457.123 402.6 460.603 404.08 464.683 404.08C468.763 404.08 472.243 402.6 475.123 399.64C478.003 396.6 479.443 392.52 479.443 387.4ZM552.008 421L531.608 392.92V421H511.088V332.2H531.608V381.28L551.888 354.04H577.208L549.368 387.64L577.448 421H552.008ZM581.188 387.4C581.188 380.52 582.468 374.48 585.028 369.28C587.668 364.08 591.228 360.08 595.708 357.28C600.188 354.48 605.188 353.08 610.708 353.08C615.428 353.08 619.548 354.04 623.068 355.96C626.668 357.88 629.428 360.4 631.348 363.52V354.04H651.868V421H631.348V411.52C629.348 414.64 626.548 417.16 622.948 419.08C619.428 421 615.308 421.96 610.588 421.96C605.148 421.96 600.188 420.56 595.708 417.76C591.228 414.88 587.668 410.84 585.028 405.64C582.468 400.36 581.188 394.28 581.188 387.4ZM631.348 387.52C631.348 382.4 629.908 378.36 627.028 375.4C624.228 372.44 620.788 370.96 616.708 370.96C612.628 370.96 609.148 372.44 606.268 375.4C603.468 378.28 602.068 382.28 602.068 387.4C602.068 392.52 603.468 396.6 606.268 399.64C609.148 402.6 612.628 404.08 616.708 404.08C620.788 404.08 624.228 402.6 627.028 399.64C629.908 396.68 631.348 392.64 631.348 387.52ZM707.513 353.32C715.353 353.32 721.593 355.88 726.233 361C730.953 366.04 733.313 373 733.313 381.88V421H712.913V384.64C712.913 380.16 711.753 376.68 709.433 374.2C707.113 371.72 703.993 370.48 700.073 370.48C696.153 370.48 693.033 371.72 690.713 374.2C688.393 376.68 687.233 380.16 687.233 384.64V421H666.713V354.04H687.233V362.92C689.313 359.96 692.113 357.64 695.633 355.96C699.153 354.2 703.113 353.32 707.513 353.32ZM757.173 421.96C753.573 421.96 750.613 420.92 748.293 418.84C746.053 416.68 744.933 414.04 744.933 410.92C744.933 407.72 746.053 405.04 748.293 402.88C750.613 400.72 753.573 399.64 757.173 399.64C760.693 399.64 763.573 400.72 765.813 402.88C768.133 405.04 769.293 407.72 769.293 410.92C769.293 414.04 768.133 416.68 765.813 418.84C763.573 420.92 760.693 421.96 757.173 421.96Z" fill="url(#paint5_linear_2073_48)"/>
<defs>
<linearGradient id="paint0_linear_2073_48" x1="400" y1="0" x2="400" y2="823" gradientUnits="userSpaceOnUse">
<stop stop-color="#EFD9A7"/>
<stop offset="0.9" stop-color="#EABA4E"/>
<stop offset="1" stop-color="#6F5927"/>
</linearGradient>
<linearGradient id="paint1_linear_2073_48" x1="399.227" y1="1000" x2="400" y2="747.5" gradientUnits="userSpaceOnUse">
<stop stop-color="#EFD9A7"/>
<stop offset="0.9" stop-color="#EABA4E"/>
<stop offset="1" stop-color="#6F5927"/>
</linearGradient>
<linearGradient id="paint2_linear_2073_48" x1="25" y1="219.5" x2="774" y2="219.5" gradientUnits="userSpaceOnUse">
<stop stop-color="#FFF4E0"/>
<stop offset="1" stop-color="#EFD9A7"/>
</linearGradient>
<linearGradient id="paint3_linear_2073_48" x1="25" y1="358.5" x2="774" y2="358.5" gradientUnits="userSpaceOnUse">
<stop stop-color="#FFF4E0"/>
<stop offset="1" stop-color="#EFD9A7"/>
</linearGradient>
<linearGradient id="paint4_linear_2073_48" x1="399.5" y1="150" x2="400" y2="332" gradientUnits="userSpaceOnUse">
<stop stop-color="#FFF4E0"/>
<stop offset="1" stop-color="#EFD9A7"/>
</linearGradient>
<linearGradient id="paint5_linear_2073_48" x1="399.5" y1="289" x2="400" y2="468.5" gradientUnits="userSpaceOnUse">
<stop stop-color="#FFF5E4"/>
<stop offset="1" stop-color="#EFD9A7"/>
</linearGradient>
</defs>
</svg>
